<?xml version="1.0" encoding="UTF-8"?>
<svg width="282px" height="72px" viewBox="0 0 282 72" version="1.1" xmlns="http://www.w3.org/2000/svg" xmlns:xlink="http://www.w3.org/1999/xlink">
    <!-- Generator: Sketch 54.1 (76490) - https://sketchapp.com -->
    <title>Programmerx</title>
    <desc>Created with Sketch.</desc>
    <g id="Page-1" stroke="none" stroke-width="1" fill="none" fill-rule="evenodd">
        <path d="M2.92307544,9.46154526 L3.57692139,8.88462236 L4.11538277,8.50000709 L4.57692109,8.19231488 L5.07692094,8.00000724 L5.57692079,7.57693045 L5.92307453,7.42308434 L6.15384369,7.30769976 L6.65384354,7.15385365 L6.84615118,7.11539212 L6.92307423,7.11539212 L7.15384339,6.92308449 L7.69230477,6.76923838 L8.65384294,6.38462311 L9.07691973,6.19231548 L9.73076569,6.00000785 L10.3461501,5.69231563 L11.1153807,5.38462342 L11.7692266,5.19231578 C11.8846112,5.15385425 12.0769188,5.0769312 12.1153804,5.03846967 L12.6153802,4.96154662 L13.1153801,4.76923899 L13.4230723,4.61539288 L13.4615338,4.57693135 L13.769226,4.42308524 L15.4615332,4.00000845 L17.269225,3.65385471 C17.3076865,3.65385471 17.4615326,3.61539318 17.6923018,3.57693165 C17.8846094,3.53847013 18.2692247,3.46154707 18.3846092,3.42308555 L18.9999937,3.19231638 L19.4230705,3.11539333 L19.6153781,3.0769318 L19.7692242,3.0769318 L20.4999932,3.00000875 L20.7692239,2.9230857 L21.653839,2.69231654 L22.1153773,2.57693196 L22.7307618,2.5000089 L23.1538386,2.46154737 L23.9615306,2.30770127 L24.6538381,2.19231669 L25.4999917,2.00000905 L25.7307609,2.00000905 C26.0384531,1.923086 26.4615299,1.84616295 26.8846067,1.80770142 L27.5384526,1.69231684 C28.076914,1.57693226 28.807683,1.5000092 29.3846059,1.42308615 L29.8076827,1.3461631 L30.4230671,1.26924004 L30.7307594,1.19231699 L30.8461439,1.15385546 L30.99999,1.19231699 C32.1153743,1.03847088 33.2307586,0.9230863 34.3076814,0.80770172 L34.9615273,0.692317139 L35.2692195,0.730778666 C35.6153733,0.692317139 36.0769116,0.653855613 36.4230653,0.653855613 L36.8076806,0.538471032 L37.3846035,0.538471032 L37.9999879,0.576932559 L38.6538339,0.538471032 L38.8461415,0.576932559 L39.3076798,0.576932559 L39.5769105,0.538471032 L40.0769104,0.461547978 L40.3461411,0.461547978 L40.6922948,0.538471032 L41.1153716,0.615394086 L42.0769098,0.692317139 C42.3076789,0.730778666 42.5384481,0.769240193 42.7307557,0.769240193 L43.0384479,0.80770172 L46.0769086,1.11539393 L47.0384467,1.26924004 L47.4615235,1.42308615 L47.4999851,1.46154768 L48.1153695,1.46154768 L48.4615232,1.5000092 L48.8846,1.61539378 C49.6922921,1.73077836 50.6153687,2.03847058 51.3461377,2.42308585 L51.8461376,2.61539348 C51.9230607,2.65385501 51.9999837,2.69231654 52.0384452,2.69231654 L52.6538297,2.84616264 L52.9615219,3.0769318 L53.4615217,3.53847013 L54.1153677,3.84616234 C55.4230596,4.34616219 56.0769056,5.61539258 56.769213,6.80769991 L57.0384437,7.30769976 L57.1922898,7.6538535 L57.2307514,7.76923808 L57.3461359,8.00000724 C57.6538282,8.42308404 57.8076743,9.03846847 57.8076743,9.73077595 C57.8076743,10.1538527 57.7692127,10.5769295 57.6538282,11.0000063 L57.5384436,11.6538523 C57.5384436,11.8461599 57.4615205,12.1153906 57.4615205,12.3076982 L57.3076744,12.7692366 L56.9999822,13.2307749 L56.8076746,13.8076978 L56.6153669,14.1538515 L56.3845978,14.5384668 L55.9230594,15.1153897 L55.8076749,15.3076973 L55.6153672,15.576928 L54.8845982,16.6538508 L54.499983,17.0769276 C54.5384445,17.1153891 54.3076753,17.3461583 54.0769062,17.5769274 L53.5769063,18.1923119 L53.3845987,18.3846195 C52.2692144,19.4230807 51.2692147,20.3461574 50.1538304,21.269234 L49.8461382,21.5384647 L49.3845999,22.0769261 L48.9230616,22.4615413 L48.6538309,22.5769259 L48.2307541,22.8846181 L47.7692158,23.3076949 L47.2692159,23.6538487 L46.9230622,24.0000024 L46.0769086,24.4230792 C44.7307551,25.3846174 43.2692171,26.3846171 41.9999867,27.0769246 L41.4230638,27.5000014 L40.9615255,27.692309 L40.269218,28.0769243 L39.0769107,28.6538472 L38.6922954,28.8461548 L38.3076801,29.0000009 L38.1153725,29.1153855 C37.0769113,29.5769238 36.1538346,30.0000006 35.3461426,30.2692313 L35.1922965,30.3846159 L34.8846043,30.5000005 L34.3076814,30.8461542 L34.0769122,30.8846157 L32.4615281,31.3846156 L31.3461438,31.4615386 C29.9230673,31.8076924 28.3461447,32 26.8076836,32.1153846 L26.5769145,32.1153846 C26.4615299,32.1153846 26.3461453,32.1538461 26.2307607,32.1538461 L26.0769146,32.1923076 L25.96153,32.1538461 C25.3076841,32.1923076 24.2307613,32.2307692 23.3461462,32.1923076 L23.0769155,32.1923076 L22.5384541,32.1538461 L22.1923004,32.1153846 C20.92307,32 19.5769166,31.7307693 18.6538399,31.3076925 L18.2307631,31.1153849 C17.7307633,30.7692311 17.3846095,30.2692313 17.269225,29.6153853 L17.1923019,29.3461546 L17.2307634,29.1153855 L17.3076865,28.7692317 L17.4615326,28.3846165 L17.6153787,28.1538473 L17.9230709,27.8461551 L18.4999938,27.3076937 L18.8461476,27.0000015 C18.8846091,26.8846169 19.0769167,26.7692323 19.3846089,26.6538478 L19.8846088,26.6538478 L19.9999934,26.9230785 C20.0384549,27.038463 19.8461473,27.5000014 19.6923011,27.6538475 L19.4999935,27.8461551 L19.2307628,28.1923088 L19.1153782,28.3846165 L18.807686,28.9230779 C18.807686,28.9615394 18.8461476,29.0000009 18.807686,29.153847 L18.9615321,29.4230777 L19.0769167,29.884616 C19.6923011,30.5000005 20.0769164,30.5769235 20.3076856,30.615385 C20.3461471,30.6538466 20.4615317,30.6923081 20.4999932,30.6923081 L20.9615315,30.6538466 L21.576916,30.7307696 L22.1538389,30.8461542 L22.8076848,31.0000003 C23.2307616,31.0384618 23.7307615,31.0384618 24.1153767,31.0384618 C24.5769151,31.0384618 25.0769149,31.0384618 25.6538378,30.9615388 L26.2692222,30.8846157 L26.5384529,30.8846157 L26.8461451,30.7692311 L27.1538374,30.6923081 L27.423068,30.6923081 L27.6538372,30.6538466 L27.9615294,30.6923081 L28.3461447,30.5769235 L28.6538369,30.5000005 L29.538452,30.3076928 L30.192298,30.1923082 L31.0769131,29.9615391 L31.2692207,29.884616 C31.6153745,29.7692314 31.9615282,29.5769238 32.307682,29.4615392 L32.6922972,29.3461546 L33.1922971,29.153847 L33.4230662,29.076924 L33.6922969,28.9615394 L34.0769122,28.7692317 L34.6922966,28.5769241 L34.8461427,28.5000011 L36.5384499,27.9615397 L37.0769113,27.692309 L37.5769111,27.5769244 C38.3846032,27.2307707 39.3076798,26.7692323 40.192295,26.307694 L40.4999872,26.1153864 L40.9615255,25.8076942 L41.6153715,25.500002 L41.8461406,25.3846174 L42.0384482,25.2692328 L42.461525,24.9230791 L42.8461403,24.6153868 L43.1538325,24.5000023 L44.6538321,23.6538487 C45.8076779,22.8846181 45.9230625,22.8076951 46.8461391,22.0769261 L47.3076774,21.6153877 L48.3461387,20.8076957 L49.3076768,19.884619 L49.7692151,19.5000038 L50.1153689,19.1923116 L50.5769072,18.7692348 L50.8845994,18.423081 L51.1153686,18.1538503 L51.4230608,17.7307735 L51.9615222,17.1153891 L52.9230604,15.7692357 L53.5769063,14.8076975 L54.0384446,13.8076978 L54.3461368,13.3076979 L55.0769059,12.1923137 L55.230752,11.8846215 C55.230752,11.8461599 55.2692135,11.8076984 55.2692135,11.7692369 L55.3461365,11.5000062 L55.4615211,11.3461601 L55.7307518,10.538468 L55.8845979,9.88462206 C55.9230594,9.69231442 55.961521,9.46154526 55.961521,9.34616068 L55.961521,9.00000694 C55.961521,8.84616083 55.961521,8.57693014 55.9230594,8.38462251 C55.8461364,7.96154572 55.5384442,7.30769976 55.3461365,6.92308449 L55.1153674,6.6538538 L54.7307521,6.19231548 L54.2692138,5.53846952 C54.1922907,5.500008 53.9999831,5.30770036 53.9615216,5.26923884 L53.4615217,4.92308509 L53.2692141,4.80770051 L52.8076758,4.46154677 L52.384599,4.19231608 C51.9999837,3.96154692 51.6922915,3.84616234 51.4230608,3.73077776 L51.1538301,3.61539318 L50.8461379,3.53847013 C49.4230614,3.00000875 49.1153692,2.96154722 47.7692158,2.76923959 C47.3846005,2.73077806 46.9999852,2.61539348 46.6538315,2.57693196 C46.4615238,2.57693196 46.2692162,2.53847043 46.0769086,2.53847043 L45.7307548,2.46154737 L45.3846011,2.5000089 L45.0384473,2.38462432 C44.8846012,2.38462432 44.7307551,2.30770127 44.576909,2.30770127 L44.1153707,2.30770127 L43.2307556,2.34616279 L42.7307557,2.34616279 L41.8846021,2.38462432 L40.9615255,2.30770127 L40.5769102,2.23077821 L40.1153719,2.07693211 C39.8076797,2.07693211 39.461526,2.15385516 39.1538337,2.15385516 C38.5384493,2.15385516 37.9999879,2.11539363 37.4615266,2.11539363 C36.9230652,2.11539363 36.4230653,2.15385516 35.7307578,2.19231669 L35.4615272,2.23077821 L35.0769119,2.23077821 C34.6538351,2.19231669 34.499989,2.23077821 33.6153739,2.42308585 C33.5384508,2.42308585 33.4999893,2.42308585 33.3846047,2.46154737 L32.1538358,2.42308585 L31.2307592,2.53847043 L30.8461439,2.61539348 L30.7692209,2.61539348 L30.4230671,2.76923959 L29.8076827,2.76923959 L28.4615293,2.9230857 L28.2307601,2.9230857 L27.8076833,2.96154722 L26.2307607,3.19231638 L23.6538384,3.65385471 L23.038454,3.76923929 C22.9230694,3.84616234 22.8461463,3.80770081 22.7692233,3.80770081 L22.4615311,3.88462387 L20.8076854,4.23077761 L20.846147,4.23077761 L20.5384547,4.30770066 L19.7692242,4.53846982 L19.4230705,4.65385441 L19.0384552,4.76923899 L18.7692245,4.84616204 L18.6538399,4.88462357 L17.8076863,5.11539273 L17.346148,5.19231578 L16.3461483,5.500008 L16.0384561,5.57693105 L15.6923024,5.73077716 L14.6538411,5.92308479 L14.3461489,6.03846937 L13.2692262,6.34616159 L12.6153802,6.38462311 L12.3461495,6.46154617 L11.7692266,6.6538538 L11.3846113,6.80769991 L11.0384576,7.00000754 L10.4999962,7.0769306 L10.0769194,7.2307767 L9.80768874,7.30769976 L8.96153515,7.6538535 L8.11538156,8.11539182 L7.8846124,8.2307764 L7.61538171,8.38462251 L6.76922812,8.73077625 L6.11538217,9.07692999 L5.88461301,9.19231457 L5.57692079,9.38462221 C4.3076904,10.1923143 3.69230597,10.6538526 3.30769071,11.0384679 L3.07692154,11.4615447 L2.92307544,11.6923138 L2.76922933,12.1923137 C2.7307678,12.2692367 2.7307678,12.3461598 2.7307678,12.4230828 C2.7307678,12.6153905 2.80769086,12.730775 2.96153696,12.7692366 L3.53845987,12.9615442 C3.65384445,12.9615442 3.88461361,13.0000057 3.99999819,13.0000057 L4.61538262,13.0769288 L5.07692094,13.1923134 L5.53845926,13.1923134 L6.3076898,13.3076979 C6.38461285,13.3076979 6.46153591,13.3461595 6.53845896,13.3461595 L6.96153576,13.4230825 C7.3076895,13.4615441 7.53845866,13.5769286 7.65384324,13.7307747 C7.84615088,14.038467 8.03845851,14.3461592 8.03845851,14.5769283 C8.03845851,15.0384667 7.61538171,15.6153896 6.80768965,15.6153896 L6.42307438,15.5384665 L5.88461301,15.4615435 L5.69230537,15.4615435 L4.92307483,15.2692358 L4.3076904,15.1538512 C4.1538443,15.1538512 3.96153666,15.0769282 3.80769056,15.0769282 L2.96153696,14.846159 L2.61538322,14.6538514 L2.26922948,14.3461592 L1.96153727,14.1538515 L1.76922963,14.0000054 L1.80769116,14.038467 C1.30769131,13.6923132 1.07692215,13.3076979 1.03846062,12.9230827 L0.961537568,12.730775 L0.961537568,12.2307752 L1.1538452,11.7692369 C1.1538452,11.7307753 1.23076826,11.5769292 1.23076826,11.5384677 L1.46153742,11.1538524 L1.88461421,10.6538526 L2.11538337,10.3461604 L2.26922948,10.1153912 L2.61538322,9.69231442 L2.92307544,9.46154526 Z M12.2692265,31.8846154 L11.9230727,32.3846153 L11.1923037,33.2307689 L11.0769191,33.4230765 L10.84615,33.7307687 L10.4999962,34.115384 L10.192304,34.5384608 L9.99999638,34.7307684 L9.73076569,35.0769221 L7.42307408,38.1538443 L7.19230492,38.6153826 L6.53845896,39.7307669 L6.15384369,40.3461513 L5.3076901,41.5384587 L4.7307672,42.4230738 C4.57692109,42.807689 4.38461346,43.1923043 4.3076904,44.0384579 C4.19230582,44.7307654 3.99999819,45.6923036 3.1538446,45.9999958 L2.69230628,46.0384573 L2.07692185,45.8461497 L1.99999879,45.4230729 L1.99999879,45.0769191 L2.03846032,44.6538423 C2.03846032,44.4999962 2.03846032,44.2692271 2.7307678,42.4230738 L2.99999849,42.07692 L3.07692154,41.8846124 L3.53845987,41.1923049 L3.88461361,40.8076896 L4.23076735,40.3846129 L4.19230582,40.4230744 L4.96153636,39.2692286 L5.53845926,38.3076904 L7.03845881,36.0384603 L7.46153561,35.4230759 C7.49999713,35.3461528 7.53845866,35.2692298 7.53845866,35.2307683 L7.65384324,35.0769221 C7.84615088,34.6923069 8.15384309,34.2307686 8.4615353,33.8076918 L8.73076599,33.461538 L9.57691958,32.3076922 L10.4230732,31.1153849 L12.384611,28.8076933 L12.4999956,28.6538472 L12.6923033,28.3461549 L13.038457,28.0000012 C13.038457,27.9615397 13.1153801,27.8076936 13.1538416,27.769232 L13.3461492,27.5000014 L14.5769181,26.0000018 C14.6153796,25.9230788 14.6153796,25.8846172 14.6153796,25.8461557 L14.8846103,25.576925 L17.6538402,22.2307722 L18.1153785,21.6538493 L18.3076862,21.4615416 L18.5769169,21.0384648 L18.9615321,20.5000035 L19.8461473,19.076927 L20.192301,18.6538502 L20.5769163,18.1538503 L21.3076853,17.1923122 L21.4615314,17.1538506 L21.653839,16.961543 L21.8076851,16.7692354 L21.7692236,16.8076969 L22.0769158,16.4230816 L22.307685,16.0384664 L22.4230696,15.8846202 L22.9615309,15.1153897 L23.1538386,14.846159 L23.6922999,14.038467 L24.1922998,13.1923134 L24.3076844,12.9615442 C24.3846074,12.7692366 24.5769151,12.5384674 24.6538381,12.3461598 L25.3846071,11.192314 L25.4999917,10.8076987 L25.9230685,10.1923143 L26.2692222,9.6538529 L26.9999912,8.42308404 L27.5769142,7.15385365 L28.4615293,5.6538541 L29.8846058,3.88462387 L30.0769134,3.80770081 C30.269221,3.73077776 30.3846056,3.76923929 30.5384517,3.84616234 L30.6153748,3.84616234 C30.99999,3.96154692 31.6153745,4.65385441 31.4999899,5.38462342 C31.3846053,5.76923868 31.1153746,6.11539243 30.8846055,6.34616159 L30.6538363,6.6538538 L29.7307597,7.84616113 C29.6538366,7.96154572 29.538452,8.0769303 29.461529,8.2307764 L28.9230676,9.00000694 L27.8461448,10.461545 L27.1538374,11.5384677 L26.9230682,12.0384676 L26.4615299,12.653852 L25.8076839,13.6153902 L25.8076839,13.6923132 L25.153838,14.5769283 L24.8076842,15.3461589 L24.7307612,15.4230819 L24.4230689,15.7692357 L23.8846076,16.307697 L23.7307615,16.5000047 C23.6538384,16.8076969 23.1923001,17.2692352 22.8461463,17.692312 L22.307685,18.3846195 L22.2307619,18.6538502 L21.8461467,19.0000039 L19.5769166,21.92308 L19.4230705,22.1538491 L19.1538398,22.5384644 L18.8461476,22.9230797 L18.4615323,23.461541 L17.8846094,24.2307716 L17.0769173,25.1153867 C16.9230712,25.3076943 16.7307636,25.6153865 16.5769175,25.7307711 L16.3076868,26.1538479 L15.9230715,26.6923093 L15.6923024,26.9230785 L14.6923027,28.3461549 L13.3461492,30.3846159 L12.2692265,31.8846154 Z M54.8269218,27.1538476 L54.4423065,27.7307705 L54.5961526,27.6153859 L55.2499986,27.0769246 L55.5961523,26.7307708 L56.0192291,26.4230786 L56.6730751,26.0000018 L57.4038441,25.4230789 L58.2499977,24.8076945 L59.442305,23.9615409 L59.5961511,23.8461563 L60.0192279,23.6153871 L60.2884586,23.3461565 L60.4807662,23.3076949 C60.5961508,23.2307719 60.7499969,23.1538488 60.82692,23.0769258 L61.5961505,22.6153874 L61.9423042,22.2692337 L62.1730734,22.1153876 L62.7115348,21.92308 L63.1346116,21.5384647 L63.6346114,21.2307725 L64.6730727,20.8076957 L64.7115342,20.8076957 C64.7115342,20.8076957 65.0576879,20.6538496 65.1730725,20.5769265 C65.3269186,20.5000035 65.5961493,20.3846189 66.2499953,20.0000036 L66.9807643,19.7307729 L68.1346101,19.2307731 L68.5576869,19.076927 L68.8653791,18.9615424 L69.3269174,18.9230809 C70.0192249,18.7307732 70.6730708,18.6153887 71.2499937,18.6538502 C71.3653783,18.6923117 71.4807629,18.7307732 71.5961475,18.7307732 C71.9038397,18.8846193 72.1346089,19.0000039 72.288455,19.15385 C72.365378,19.2307731 72.5576857,19.4230807 72.5961472,19.5384653 L72.7499933,19.9615421 L72.6730702,20.9230803 L72.5192241,21.3846186 L72.3269165,21.6923108 L72.0192243,22.000003 L71.7115321,22.1923107 L71.4038399,22.2692337 L71.1730707,22.3076952 L70.8653785,22.2692337 L70.4807632,21.8846184 L70.4423017,21.6538493 L70.4038402,21.4615416 L70.4038402,21.269234 L70.3269171,21.0000033 L70.2884556,20.7307726 L70.2115325,20.4615419 L69.9038403,20.4615419 L69.3653789,20.6923111 L69.0961482,20.7307726 L68.9038406,20.6923111 L68.4807638,20.8846187 L68.1346101,20.9230803 C67.6730717,21.0000033 67.1730719,21.1538494 66.7499951,21.2307725 C66.2499953,21.4615416 65.6730724,21.7307723 65.1730725,21.92308 C65.134611,21.9615415 64.9807649,22.0384645 64.9423033,22.0384645 L64.7499957,22.2307722 L63.2115346,23.0384642 L62.6730733,23.384618 L62.4038426,23.6153871 L61.6730736,24.0000024 L61.5192274,24.0769255 L61.1730737,24.3846177 L60.5961508,24.769233 L60.3653816,25.0000021 L59.2499974,25.7307711 L58.2499977,26.6153862 L57.326921,27.5000014 L57.0576903,27.692309 L56.596152,28.1923088 L56.0192291,28.6923087 L55.7115369,28.8846163 C55.6346138,28.9615394 55.4807677,29.076924 55.4423062,29.153847 L55.0961525,29.4615392 L54.7499987,29.8461545 L54.5576911,30.0384621 L54.3653835,30.1923082 L53.9807682,30.538462 L53.8653836,30.7307696 L53.6346144,30.9230772 L53.4807683,31.1153849 L53.0961531,31.4615386 L52.211538,32.5769229 L51.634615,33.4230765 L51.2884613,33.8461533 L50.7884615,34.2692301 C50.6346153,34.3461531 50.4038462,34.3846147 50.2115386,34.3846147 C49.8653848,34.3846147 49.5961541,34.2307686 49.5192311,33.9999994 C49.4038465,33.8461533 49.2884619,33.1538458 49.5192311,32.653846 L49.8269233,31.9615385 L50.2884616,31.1923079 L50.6346153,30.7692311 L50.903846,30.4230774 L51.3653844,29.807693 L51.634615,29.4230777 L51.8653842,29.076924 L52.0192303,28.7307702 L52.4038456,28.2307704 L52.4807686,27.9615397 L52.942307,27.4230783 L53.0576915,27.3076937 C53.2115376,27.1153861 53.3653838,26.7692323 53.5192299,26.5769247 L53.749999,26.230771 L54.1730758,25.6153865 L54.5192296,25.0000021 L54.6346141,24.8076945 L54.7884603,24.4615407 L54.9423064,24.2692331 L54.9423064,24.2307716 L55.2499986,23.5000026 L55.5192293,22.9615412 L55.9423061,22.2307722 L56.3269213,21.269234 L56.3653829,21.1153879 L56.519229,20.8846187 L57.0192288,20.3846189 L57.6346132,19.9615421 L57.8653824,19.884619 L58.1346131,19.9230806 C58.6730745,20.1538497 58.8653821,20.4230804 58.9423052,20.6923111 L58.9423052,20.9230803 C58.9423052,21.5000032 58.5961514,22.000003 58.2499977,22.4230798 L57.4423056,23.3076949 L57.0961519,23.6923102 L57.0192288,23.8076948 L56.8653827,24.0769255 C56.9038442,24.0384639 56.6346135,24.4230792 56.4423059,24.6923099 L55.9038445,25.4615404 L55.7499984,25.7692326 L55.4423062,26.2692325 L55.134614,26.6153862 L55.134614,26.6538478 L54.8269218,27.1538476 Z M82.2307655,25.6153865 L82.2307655,25.6923096 C82.1923039,25.8461557 82.1923039,25.9615403 81.8846117,26.6923093 C81.8461502,26.8076939 81.7692271,27.0769246 81.6923041,27.2307707 L81.3076888,27.769232 L80.884612,28.0769243 L80.5384583,28.423078 L80.1923045,28.8076933 L79.8076893,29.1153855 C79.1538433,29.7307699 78.3076897,30.2692313 77.4230746,30.8076927 L77.3461515,30.8461542 L76.8461517,31.1923079 L76.6153825,31.269231 L76.1538442,31.5769232 L75.8846135,31.8461539 L75.6538444,31.8846154 C75.6153828,31.9615385 75.4999983,32.0769231 75.4999983,32.0769231 L75.1538445,32.2307692 L75.0384599,32.2692307 L74.6153831,32.3846153 L74.3461525,32.4615383 L74.1923063,32.4999998 C74.1538448,32.5384614 74.0769218,32.6153844 74.0384602,32.6153844 L73.9230757,32.653846 C73.2307682,32.9230766 72.8076914,33.1153843 72.4230761,33.1923073 L72.3076915,33.3076919 L72.0769224,33.3461534 L71.538461,33.4230765 L71.2692303,33.4230765 L70.5384613,33.384615 C70.1923076,33.384615 69.8846153,33.3461534 69.6538462,33.3076919 C69.4615385,33.2692304 69.2307694,33.2307689 68.8076926,33.0384612 L68.7307695,32.9999997 C68.3461543,32.8076921 67.8461544,32.3846153 67.7692314,32.1153846 L67.6538468,31.8076924 L67.6153853,31.4615386 L67.7692314,30.6923081 L68.038462,30.2307698 L68.3846158,29.7307699 L69.7692308,28.3461549 L70.2307691,27.9230782 L70.6153843,27.6153859 L70.7692305,27.4615398 L71.615384,26.8461554 L71.6538456,26.8076939 C71.6923071,26.7692323 71.8076917,26.6538478 71.8846147,26.6153862 L72.3076915,26.2692325 L72.4999992,26.1153864 L73.4230758,25.4230789 L73.6923065,25.1538482 L73.8076911,25.1538482 L74.1923063,24.8846175 L74.6153831,24.6153868 L75.115383,24.3076946 L75.8846135,23.7692333 L76.2692288,23.5384641 L75.6923059,23.5384641 C75.6153853,23.538465 75.5384598,23.5769256 75.4230752,23.5769256 C75.1538445,23.6153871 74.8076908,23.6538487 74.461537,23.6538487 L73.4999989,23.6923102 L73.0384605,23.5769256 L72.7307683,23.384618 L72.4230761,23.0000027 L72.4615376,22.5384644 L72.8461529,21.8846184 L73.3461528,21.6923108 L73.8076911,21.6153877 L74.3076909,21.5769262 L74.5769216,21.6923108 L75.2307676,21.8076954 C75.7692289,21.8076954 76.2307673,21.8461569 76.7692286,21.92308 L77.3461515,21.92308 L77.9230745,21.9615415 L78.6538435,21.8461569 L78.8076896,21.8846184 L79.3461509,21.8076954 C79.423074,21.7692339 79.5769201,21.7307723 79.6153816,21.6923108 L80.07692,21.3846186 L80.3846122,21.2307725 L80.4230737,21.2307725 L80.7307659,21.0769264 L81.0769197,21.0384648 L81.3846119,21.0000033 C81.615381,20.9615418 81.9999963,20.9230803 82.269227,20.9615418 L82.4999961,20.9615418 L82.6923038,21.0384648 C82.8461499,21.0769264 83.0384575,21.192311 83.1538421,21.269234 L84.0769187,21.1153879 L84.5384571,21.0000033 L85.11538,20.9615418 L85.7307644,20.7692342 L86.0384566,20.7307726 L86.4230719,20.6923111 L87.1923024,20.6923111 L87.4999946,20.6538496 L87.9999945,20.6923111 C88.1153791,20.6923111 88.2692252,20.6923111 88.4230713,20.6538496 L88.8076866,20.6538496 C88.9230711,20.6538496 89.0384557,20.6153881 89.1538403,20.6153881 L89.3846095,20.538465 L89.5384556,20.5769265 L89.7692247,20.5769265 L89.9999939,20.538465 L90.2692246,20.538465 L90.6923014,20.5769265 L91.0769166,20.538465 L91.3461473,20.6153881 L91.4615319,20.6153881 L91.7692241,20.6538496 L91.9615318,20.6923111 C92.269224,20.7307726 92.6538392,20.8461572 93.1538391,21.0000033 L93.2307621,21.0384648 L93.3846082,21.0384648 L93.730762,21.2307725 L93.6923005,21.2307725 C94.0384542,21.3076955 94.0384542,21.3846186 94.1153773,21.4615416 C94.1923003,21.5000032 94.2307618,21.5000032 94.2692234,21.5000032 L94.7692232,22.000003 L94.9230693,22.3076952 L94.9615308,22.7692336 L94.8846078,23.1538488 L94.6923002,23.5384641 L94.3461464,24.0769255 C94.1923003,24.3461562 94.1153773,24.4230792 93.9999927,24.5384638 L93.7692235,24.769233 L93.3076852,24.8846175 L93.076916,24.846156 L93.0384545,24.3846177 L93.076916,24.19231 L93.1538391,23.9230794 L93.3076852,23.6153871 L93.5769159,23.1538488 L93.730762,22.653849 L93.730762,22.5384644 L93.4230698,22.3846183 L93.1538391,22.1923107 L92.5769162,22.0384645 C91.7307626,21.8461569 90.6923014,21.8461569 90.1153785,21.8461569 L89.5384556,21.8461569 L89.0769172,21.8846184 C88.8846096,21.8846184 88.7307635,21.92308 88.5769174,21.9615415 C88.4615328,22.000003 88.3076867,22.000003 88.1153791,22.000003 C86.4230719,22.1153876 85.2307646,22.2692337 84.0384572,22.4615413 L83.730765,22.5384644 L83.5769189,22.653849 L82.8461499,22.6153874 L82.0769194,22.730772 L80.9999966,22.8846181 L80.7307659,23.0000027 L80.9230735,23.1538488 L80.9999966,23.1923104 L81.3076888,23.384618 L81.9230732,24.0384639 L82.0769194,24.3846177 L82.269227,24.846156 L82.2307655,25.6153865 Z M79.7307662,26.96154 L79.8461508,26.8846169 C80.153843,26.5000017 80.3076891,26.1923094 80.4615352,25.8846172 L80.4615352,25.6538481 L80.6153813,25.2307713 C80.6153813,25.1153867 80.6538429,25.0384636 80.6538429,24.8846175 C80.6153813,24.8076945 80.4615352,24.5384638 80.4615352,24.5000023 L80.4230737,24.4615407 L80.153843,24.2692331 L79.8461508,24.0769255 L79.3846125,23.9230794 L78.9230741,23.6538487 C78.9230741,23.6538487 78.8461511,23.6538487 78.8076896,23.6153871 L78.5384589,23.8076948 C78.1153821,24.0769255 77.5384592,24.5000023 76.3076903,25.1538482 L75.2307676,25.8076942 L74.7692292,26.1153864 L74.5769216,26.230771 C74.3076909,26.3846171 74.0384602,26.6153862 73.7692296,26.7692323 L73.5384604,26.96154 L73.0384605,27.3076937 L72.6153837,27.692309 L72.1923069,27.9615397 L71.9230763,28.1923088 L71.4230764,28.5769241 C71.3461534,28.6538472 71.1153842,28.8846163 71.0769227,28.9615394 L70.7307689,29.4230777 L70.4230767,29.7692314 C70.2307691,30.0384621 70.0384614,30.3461543 69.9230769,30.615385 C69.8846153,30.6538466 69.8846153,30.7307696 69.8846153,30.7307696 L69.8076923,30.9230772 L69.7692308,31.2307695 L69.7307692,31.346154 L69.7307692,31.5769232 L69.9615384,31.8076924 L70.153846,31.9230769 L70.2307691,31.9230769 C71.4230764,32 71.6923071,31.8846154 72.923076,31.4615386 C73.5384604,31.269231 74.1153833,31.0384618 74.6153831,30.8461542 L75.3846137,30.4615389 L76.1153827,29.884616 L76.3846134,29.884616 L77.4615361,29.153847 L77.6538438,29.0000009 C77.961536,28.7692317 78.2692282,28.4615395 78.5769204,28.1923088 L78.692305,28.0384627 L79.0769203,27.692309 L79.423074,27.3461553 C79.423074,27.3076937 79.4615355,27.2307707 79.4615355,27.2307707 L79.7307662,26.96154 Z M64.3269301,67.6922969 L64.5192378,66.7692203 C64.5192378,66.5769126 64.5961608,66.2692204 64.5961608,66.1153743 L64.7500069,65.6153745 L65.0192376,64.7307594 L65.3653913,63.8461442 L65.557699,63.4230674 L65.5961605,63.3846059 C65.5961605,63.3461444 65.6730836,63.1922983 65.7115451,63.1538368 C66.0192373,62.4230677 66.4807756,61.4615296 66.8653909,60.7307606 C66.9038524,60.692299 66.9038524,60.6538375 66.9038524,60.615376 L67.2115446,59.8461454 L67.673083,59.0769149 L67.7884675,58.8076842 L68.1730828,58.3461459 L68.7115442,57.5769154 L69.9807746,55.6923005 L71.5192356,53.8076857 L72.0192355,53.0769167 L72.3269277,52.5769169 L72.7500045,52.076917 L73.1346198,51.6153787 L73.5576966,51.1538404 L74.3269271,50.3076868 L74.4807732,50.1923022 C74.5192347,50.1153791 74.6346193,50.0384561 74.6730808,49.961533 L74.9423115,49.7307639 L75.4038499,49.2692256 L76.0192343,48.5769181 L77.0576955,47.5769184 L77.2115416,47.4230723 L77.6346184,46.9230724 L78.5192335,45.9999958 L79.0192334,45.4999959 L79.4423102,45.1153807 L79.94231,44.6923039 L80.1730792,44.4999962 L80.4423099,44.192304 L81.0961558,43.6923042 L82.1346171,42.7692275 L82.5192323,42.3846123 C83.4038474,41.6153817 84.250001,40.8461512 85.0192316,40.2307667 L85.3653853,39.8461515 L85.7884621,39.6538438 L86.0576928,39.4615362 C86.6730772,39.0384594 87.2884617,38.5384596 87.9038461,38.1153828 L88.2499998,37.8461521 L88.6730766,37.5769214 L89.211538,36.9999985 L90.2499992,36.4230756 C91.1346143,35.8076912 92.1730756,35.0769221 93.0961522,34.4615377 L93.442306,34.192307 L95.6730745,32.7692305 L95.9423052,32.5769229 L96.1730744,32.3846153 L96.7115357,32.1153846 L96.7499973,32.0769231 L97.1730741,31.7307693 L97.5576893,31.5000002 L97.7884585,31.3846156 L98.1730738,31.269231 L98.557689,31.1153849 L99.3269196,30.0384621 L99.5961502,29.5384623 L99.7115348,29.3076931 L100.519227,27.9230782 L100.942304,27.038463 L101.326919,26.230771 L101.442304,26.0000018 L101.634611,25.576925 L101.86538,24.769233 L101.519227,24.846156 L100.749996,25.1538482 L100.634611,25.2692328 L100.326919,25.4230789 L99.8269194,25.7307711 L98.9423043,26.230771 C98.8653812,26.307694 98.6730736,26.4230786 98.6730736,26.4230786 L97.4038432,27.2307707 L97.2884586,27.2692322 L97.096151,27.3461553 L96.8269203,27.4615398 L96.0192283,28.0000012 L95.5192284,28.3461549 L94.3269211,28.8846163 L93.8269212,29.153847 L93.519229,29.3461546 L93.442306,29.3461546 L92.6346139,29.9615391 L91.9423064,30.3846159 L91.7115372,30.538462 L91.5961527,30.6538466 L91.0576913,30.9615388 L90.8269221,31.0384618 L90.0192301,31.269231 L89.942307,31.269231 C89.1346149,31.5769232 88.5192305,31.6538463 87.9423076,31.6153847 C87.7115384,31.6153847 87.3269232,31.4615386 87.0576925,31.1538464 L86.8269233,30.6923081 L86.8269233,30.3846159 L86.9038464,30.0384621 L87.2500001,29.153847 L87.3269232,29.1153855 L87.5576923,28.8076933 C87.6346154,28.7307702 87.7115384,28.6923087 88.1730768,28.0384627 L88.5192305,27.7307705 L89.211538,27.0769246 L89.5192302,26.7307708 L89.9038455,26.4615401 L90.2499992,26.1153864 L90.5576914,25.8846172 L90.9423067,25.4230789 L91.4423066,25.0769252 L91.6346142,24.9230791 L91.8653834,24.7307714 L92.4038447,24.3846177 L92.5961524,24.3076946 L93.0961522,23.9615409 L93.6346136,23.5769256 L93.8653827,23.3461565 L94.7884594,22.7692336 L94.8653824,22.7692336 L94.9423055,22.6923105 L95.4807669,22.3461568 L95.5192284,22.3076952 L96.4038435,21.7692339 L96.7115357,21.5769262 L98.0961507,20.7692342 C99.0961504,20.2692343 100.403842,20.0384651 100.942304,20.0384651 C100.980765,20.0384651 101.019227,20.0769267 101.057688,20.0769267 C101.211534,20.1153882 101.288457,20.1153882 101.711534,20.3461574 L101.980765,20.6923111 L102.096149,20.8846187 C102.173073,21.0000033 102.288457,21.3461571 102.288457,21.6923108 C102.288457,22.0384645 102.288457,22.3846183 102.211534,22.5384644 L102.134611,22.8076951 L102.711534,22.653849 L103.326918,22.5769259 L103.634611,22.5769259 L103.980764,22.653849 L104.326918,23.0000027 L104.326918,23.384618 L104.249995,24.0000024 L103.903841,24.5384638 L103.788457,24.7307714 L103.634611,25.0769252 L103.211534,25.7307711 C103.096149,25.9230788 102.86538,26.2692325 102.711534,26.5000017 C102.557688,26.8846169 102.249996,27.4615398 102.096149,27.8076936 L101.86538,28.4615395 L101.59615,29.076924 L101.403842,29.3461546 L101.249996,29.7307699 L102.634611,29.076924 L103.096149,28.7692317 L103.326918,28.6923087 L104.096149,28.5000011 L105.249995,28.0000012 C105.788456,27.7307705 106.173071,27.5769244 106.519225,27.5000014 L106.749994,27.3461553 L107.096148,27.1923091 L108.211532,27.0000015 C108.211532,27.0000015 108.249994,27.0000015 108.40384,26.96154 L108.865378,26.8076939 L109.249993,26.7307708 L109.596147,26.5769247 L110.096147,26.4230786 L110.403839,26.3461556 L111.288454,26.1923094 L112.403839,26.0384633 L112.788454,26.3846171 L112.826915,26.8461554 L112.480762,27.1923091 L112.249993,27.2307707 L112.019223,27.2307707 C111.749993,27.2692322 111.480762,27.3846168 111.249993,27.4230783 L110.980762,27.5000014 L110.557685,27.5384629 L109.288455,27.8461551 L108.90384,28.0384627 L108.442301,28.1153858 L108.096148,28.1923088 C107.826917,28.2307704 107.557686,28.3461549 107.326917,28.3846165 L107.173071,28.423078 L106.096148,28.9615394 L105.173072,29.3076931 L104.557687,29.6153853 L103.903841,29.807693 C103.326918,30.0000006 102.749995,30.3461543 101.711534,30.9230772 L101.211534,31.1923079 L100.749996,31.4615386 L100.557688,31.5000002 L99.7115348,31.9615385 L99.3269196,32.4999998 L98.9423043,33.1153843 L98.557689,33.6153841 L98.480766,33.8076918 L97.7884585,34.6923069 L95.5961515,37.8076906 C95.3269208,38.1538443 95.0576901,38.6538441 94.7884594,38.9999979 L93.9038443,40.1153822 L93.5961521,40.5769205 C93.2499983,40.9230742 93.2499983,40.9999973 93.1346137,41.1538434 L92.7499985,41.7307663 L91.9423064,42.8461506 C91.403845,43.5384581 90.7884606,44.2692271 90.2499992,44.9999961 L89.2884611,46.2692265 L89.1730765,46.4230726 L88.6730766,47.2307646 L86.6346157,49.8076869 L85.7115391,51.0384558 L83.2115398,54.1538395 C82.6730784,54.8846085 82.0961555,55.6153775 81.5192326,56.307685 L80.7500021,57.2307616 C80.7500021,57.2692231 80.7115406,57.3846077 80.7115406,57.3846077 L78.9038488,59.6153763 C78.4423105,60.4615299 77.8653876,61.2692219 77.2884647,61.8461448 L76.5961572,62.6538369 C76.3269265,62.9999906 75.9423112,63.3846059 75.5961575,63.7307597 C75.2884653,64.0384519 74.9423115,64.4230671 74.6730808,64.8076824 L73.9807734,65.7692206 L73.7500042,66.1153743 L73.2884659,66.7692203 C73.0192352,67.115374 72.788466,67.3461432 72.5961584,67.4999893 C72.4038508,67.6538354 72.2115431,67.7307584 71.980774,68.1922968 L71.7115433,68.3846044 L70.9038512,69.2692195 L69.9038515,70.3076807 L69.5576978,70.5769114 C68.8653903,71.0769113 68.2500059,71.5769111 67.3653907,71.8076803 L66.5576987,71.9999879 L65.4038529,71.6153727 L65.0576991,71.3076804 C64.7115454,71.0384498 64.5576993,70.615373 64.3269301,69.9999885 C64.3269301,69.9999885 64.3269301,69.961527 64.2884686,69.8076809 C64.2115455,69.4615272 64.2115455,68.8846043 64.2500071,68.5384505 C64.2500071,68.3076814 64.3269301,67.9230661 64.3269301,67.6922969 Z M92.8269215,39.2692286 L94.0576904,37.5769214 L94.6346133,36.8076909 C94.6730748,36.6923063 94.7499979,36.6538447 94.7884594,36.5384602 L95.5961515,35.3461528 L95.8269206,34.9615376 L97.096151,33.3461534 L96.3269205,33.8076918 L95.8269206,34.1538455 L94.980767,34.6538454 L93.2884598,35.7692296 L92.7115369,36.1538449 L91.5192296,36.9230754 L90.9807682,37.2692292 L89.0961534,38.6538441 L88.7115381,38.9615364 C87.019231,40.3076898 85.3269238,41.6923048 83.7115397,43.1153813 L83.6346166,43.1538428 L83.2884629,43.6153811 L82.8269245,43.8846118 C81.5576942,45.0384576 80.2115407,46.2307649 79.0192334,47.4615338 L78.6730796,47.9230721 L78.3269259,48.1538413 L77.9038491,48.5769181 L77.7884645,48.7692257 L77.2500031,49.4615332 L76.4807726,50.2307637 L76.288465,50.3846098 L75.7500036,51.1923019 L74.5192347,52.6153784 L73.1346198,54.0769164 L72.4038508,55.0769161 C71.7884663,55.7692236 71.2884665,56.3461465 71.0576973,56.6923002 L70.3653898,57.6922999 C70.1730822,57.9230691 70.0576976,58.1153767 69.86539,58.3846074 C69.8269285,58.4615305 69.7884669,58.5769151 69.7115439,58.6538381 C69.6346208,58.8076842 69.211544,59.5769148 68.9807749,60.0769146 L68.480775,61.0769143 C67.673083,62.6922984 66.8653909,64.3461441 66.2500065,65.8846052 C66.2500065,66.0384513 66.1730834,66.2692204 66.1730834,66.4230665 L66.0961604,66.9230664 L65.7500066,67.9230661 C65.6730836,68.499989 65.634622,69.1922965 65.7115451,69.6922963 C65.9423142,69.8076809 67.0961601,69.0769119 67.2884677,68.9230658 L68.0961598,68.6153736 L68.5192365,68.1922968 L69.4807747,67.6153739 C70.4423129,66.8461433 71.5961587,65.8846052 72.4807738,64.7692209 C72.6346199,64.5769132 73.0961582,64.1153749 73.5961581,63.6153751 C74.5576963,62.6538369 75.9038497,61.346145 77.9807722,58.3846074 L79.4423102,56.5769157 C79.6346178,56.3461465 79.9038485,56.0769158 80.0961561,55.8076851 L81.6730787,53.7692242 C82.1730786,52.9999937 82.8653861,52.1538401 83.3653859,51.6538402 C83.8653858,51.0384558 84.4807702,50.3076868 84.9423085,49.6538408 L85.0961546,49.4230717 L85.7884621,48.5769181 L87.096154,47.0769185 L87.5576923,46.4230726 L87.6730769,46.2692265 L88.2884614,45.4230729 L88.7884612,44.6538423 L89.0192304,44.3846116 L89.0192304,44.3461501 L89.3653841,44.0384579 L90.0961531,42.9615352 L90.2115377,42.8461506 C90.6346145,42.2307661 91.0576913,41.6153817 91.4807681,41.0384588 L91.6346142,40.8076896 L91.9423064,40.3846129 L92.0961525,40.0769206 L92.5192293,39.6153823 L92.8269215,39.2692286 Z M99.211535,24.0769255 L99.3269196,24.0000024 L99.288458,23.8076948 L99.3269196,23.461541 L99.4807657,23.1153873 L99.5961502,22.9230797 L99.7884579,22.5384644 L100.173073,22.0769261 L100.365381,21.7692339 L100.557688,21.5000032 C100.173073,21.5384647 99.6730733,21.7307723 99.1346119,21.9615415 L98.8653812,22.1153876 L98.557689,22.3076952 L98.0961507,22.6153874 L97.7884585,22.8461566 L97.4423047,23.0000027 L96.9423049,23.1538488 L96.6346127,23.3076949 C96.4038435,23.384618 96.2115359,23.5384641 96.0192283,23.6923102 C95.4038438,24.0769255 94.7499979,24.4615407 94.0961519,24.9230791 L93.7115366,25.2692328 L93.3269214,25.500002 L93.0576907,25.7307711 L92.3653832,26.1923094 L91.5576911,26.8076939 L90.7884606,27.4615398 L90.0576916,28.1923088 L89.8269224,28.5000011 L89.5961533,28.7692317 L88.9423073,29.6538469 C88.8653843,29.807693 88.7884612,29.8461545 88.7115381,30.0000006 C88.6730766,30.0769237 88.6346151,30.2307698 88.6346151,30.2692313 L88.5192305,30.4230774 C88.5192305,30.4230774 88.557692,30.4230774 88.5961536,30.3846159 C88.7884612,30.3461543 89.0576919,30.3076928 89.1730765,30.2307698 L89.2499995,30.1923082 L89.7499994,29.9615391 L90.3653838,29.5769238 L90.9038452,29.3461546 L91.4423066,29.0000009 L92.0192295,28.6153856 L92.2884601,28.4615395 L92.5961524,28.3076934 L93.2115368,27.9230782 L93.5961521,27.6153859 L94.0576904,27.3076937 L94.9423055,26.7307708 L96.0961513,25.9615403 L96.9807664,25.2692328 L97.4038432,25.0000021 L97.6346124,24.846156 L98.0961507,24.5769253 L98.8653812,24.2307716 L99.0576889,24.0769255 L99.211535,24.0769255 Z M113.423076,27.1538476 L113.03846,27.7307705 L113.192306,27.6153859 L113.846152,27.0769246 L114.192306,26.7307708 L114.615383,26.4230786 L115.269229,26.0000018 L115.999998,25.4230789 L116.846152,24.8076945 L118.038459,23.9615409 L118.192305,23.8461563 L118.615382,23.6153871 L118.884612,23.3461565 L119.07692,23.3076949 C119.192305,23.2307719 119.346151,23.1538488 119.423074,23.0769258 L120.192304,22.6153874 L120.538458,22.2692337 L120.769227,22.1153876 L121.307689,21.92308 L121.730765,21.5384647 L122.230765,21.2307725 L123.269226,20.8076957 L123.307688,20.8076957 C123.307688,20.8076957 123.653842,20.6538496 123.769226,20.5769265 C123.923072,20.5000035 124.192303,20.3846189 124.846149,20.0000036 L125.576918,19.7307729 L126.730764,19.2307731 L127.153841,19.076927 L127.461533,18.9615424 L127.923071,18.9230809 C128.615379,18.7307732 129.269225,18.6153887 129.846148,18.6538502 C129.961532,18.6923117 130.076917,18.7307732 130.192301,18.7307732 C130.499994,18.8846193 130.730763,19.0000039 130.884609,19.15385 C130.961532,19.2307731 131.15384,19.4230807 131.192301,19.5384653 L131.346147,19.9615421 L131.269224,20.9230803 L131.115378,21.3846186 L130.92307,21.6923108 L130.615378,22.000003 L130.307686,22.1923107 L129.999994,22.2692337 L129.769225,22.3076952 L129.461532,22.2692337 L129.076917,21.8846184 L129.038456,21.6538493 L128.999994,21.4615416 L128.999994,21.269234 L128.923071,21.0000033 L128.884609,20.7307726 L128.807686,20.4615419 L128.499994,20.4615419 L127.961533,20.6923111 L127.692302,20.7307726 L127.499994,20.6923111 L127.076918,20.8846187 L126.730764,20.9230803 C126.269226,21.0000033 125.769226,21.1538494 125.346149,21.2307725 C124.846149,21.4615416 124.269226,21.7307723 123.769226,21.92308 C123.730765,21.9615415 123.576919,22.0384645 123.538457,22.0384645 L123.34615,22.2307722 L121.807688,23.0384642 L121.269227,23.384618 L120.999996,23.6153871 L120.269227,24.0000024 L120.115381,24.0769255 L119.769228,24.3846177 L119.192305,24.769233 L118.961535,25.0000021 L117.846151,25.7307711 L116.846152,26.6153862 L115.923075,27.5000014 L115.653844,27.692309 L115.192306,28.1923088 L114.615383,28.6923087 L114.307691,28.8846163 C114.230768,28.9615394 114.076922,29.076924 114.03846,29.153847 L113.692306,29.4615392 L113.346153,29.8461545 L113.153845,30.0384621 L112.961537,30.1923082 L112.576922,30.538462 L112.461537,30.7307696 L112.230768,30.9230772 L112.076922,31.1153849 L111.692307,31.4615386 L110.807692,32.5769229 L110.230769,33.4230765 L109.884615,33.8461533 L109.384615,34.2692301 C109.230769,34.3461531 109,34.3846147 108.807692,34.3846147 C108.461539,34.3846147 108.192308,34.2307686 108.115385,33.9999994 C108,33.8461533 107.884616,33.1538458 108.115385,32.653846 L108.423077,31.9615385 L108.884615,31.1923079 L109.230769,30.7692311 L109.5,30.4230774 L109.961538,29.807693 L110.230769,29.4230777 L110.461538,29.076924 L110.615384,28.7307702 L110.999999,28.2307704 L111.076922,27.9615397 L111.538461,27.4230783 L111.653845,27.3076937 C111.807691,27.1153861 111.961538,26.7692323 112.115384,26.5769247 L112.346153,26.230771 L112.76923,25.6153865 L113.115383,25.0000021 L113.230768,24.8076945 L113.384614,24.4615407 L113.53846,24.2692331 L113.53846,24.2307716 L113.846152,23.5000026 L114.115383,22.9615412 L114.53846,22.2307722 L114.923075,21.269234 L114.961537,21.1153879 L115.115383,20.8846187 L115.615383,20.3846189 L116.230767,19.9615421 L116.461536,19.884619 L116.730767,19.9230806 C117.269228,20.1538497 117.461536,20.4230804 117.538459,20.6923111 L117.538459,20.9230803 C117.538459,21.5000032 117.192305,22.000003 116.846152,22.4230798 L116.038459,23.3076949 L115.692306,23.6923102 L115.615383,23.8076948 L115.461537,24.0769255 C115.499998,24.0384639 115.230767,24.4230792 115.03846,24.6923099 L114.499998,25.4615404 L114.346152,25.7692326 L114.03846,26.2692325 L113.730768,26.6153862 L113.730768,26.6538478 L113.423076,27.1538476 Z M141.557688,28.9230779 L142.326919,27.8461551 L142.634611,27.4230783 L142.942303,27.0769246 L142.980765,27.0769246 L143.36538,26.6538478 L143.480765,26.5000017 L143.442303,26.5000017 L142.980765,26.6153862 L141.903842,27.038463 L141.519227,27.1153861 L140.326919,27.8076936 L140.019227,28.0000012 L139.749997,28.1153858 L139.480766,28.2692319 L138.596151,28.6923087 L137.596151,29.2692316 L137.32692,29.3846162 L136.634613,29.6923084 L136.596151,29.7307699 L136.05769,30.0384621 L135.903844,30.0769237 C135.673075,30.1923082 135.442306,30.3846159 135.211536,30.5000005 L134.980767,30.6538466 L134.596152,30.9230772 L134.365383,31.0000003 C134.326921,31.0384618 134.096152,31.1153849 134.057691,31.1153849 C133.78846,31.269231 133.519229,31.4230771 133.249999,31.6153847 L132.51923,32 L132.173076,32 L131.711537,32.1923076 L131.442307,32.1538461 C131.365384,32.2307692 131.288461,32.1923076 131.096153,32.2692307 C131.01923,32.3076922 130.903845,32.4615383 130.903845,32.4615383 L130.134615,32.730769 L129.865384,32.7692305 L129.211538,33.0384612 L128.980769,33.0769228 L128.711538,33.0384612 C127.942308,33.1153843 127.326923,32.9615382 127.096154,32.3461537 C126.903847,31.8076924 127.096154,31.1153849 127.365385,30.4615389 L127.557693,29.9230775 L127.788462,29.6538469 C127.788462,29.6538469 127.826923,29.6153853 127.826923,29.5769238 L128.134615,29.1153855 L128.403846,28.7307702 L128.788461,28.2692319 L129.25,27.8076936 L129.403846,27.6153859 L129.75,27.3461553 L130.173076,26.96154 L131.942307,25.3846174 L132.480768,24.9615406 L132.749999,24.6923099 L133.211537,24.3076946 L133.28846,24.2692331 L133.596152,24.0769255 L134.365383,23.384618 L135.019229,22.8461566 L135.288459,22.6153874 L135.865382,22.3076952 L135.903844,22.2692337 L136.249998,22.1153876 L136.365382,22.0769261 C136.480767,22.0384645 136.596151,21.92308 136.980767,21.8076954 L138.365382,21.1153879 L138.711535,20.9615418 L138.942304,20.8846187 C139.173074,20.8461572 139.365381,20.7307726 139.59615,20.6923111 L139.749997,20.5769265 L140.134612,20.538465 L140.365381,20.4615419 L140.634612,20.3846189 L141.211535,20.3846189 L142.057688,20.5000035 C142.09615,20.538465 142.211534,20.5769265 142.249996,20.5769265 L142.673073,20.9230803 L142.711534,21.3076955 L142.634611,21.6538493 C142.519226,21.9615415 141.980765,22.653849 141.173073,22.5769259 C141.09615,22.5769259 140.980765,22.6153874 140.903842,22.6153874 L139.403843,22.6153874 L139.134612,22.653849 L138.903843,22.730772 L138.403843,22.8846181 L137.749997,23.0769258 L136.903844,23.4230795 L135.903844,23.9615409 L135.711536,24.0769255 L135.211536,24.4230792 L133.480768,25.6923096 L133.365383,25.8076942 L133.019229,26.1923094 L132.673076,26.5384632 L132.403845,26.6923093 L132.096153,26.96154 L132.01923,27.038463 L131.634614,27.3461553 L131.634614,27.4230783 L131.249999,27.8846166 L130.788461,28.3076934 L130.788461,28.3461549 L130.557692,28.6153856 L130.403846,28.8076933 L130.326922,28.9230779 C130.326922,28.9615394 130.288461,29.0384624 130.288461,29.0384624 L130.057692,29.2692316 L129.903846,29.4615392 L129.480769,30.0384621 L129.25,30.538462 L129.134615,30.7692311 L128.942308,31.0000003 L128.826923,31.1538464 L128.788461,31.2307695 L128.788461,31.5000002 C129.057692,31.4230771 129.211538,31.269231 129.480769,31.1923079 L129.826923,31.1153849 L130.403846,30.9230772 L130.673076,30.8846157 L132.01923,30.2692313 L132.211537,30.1538467 L132.557691,29.9615391 L133.057691,29.807693 L133.28846,29.6923084 C133.596152,29.5769238 133.596152,29.6153853 134.249998,29.2307701 L134.519229,29.0384624 L134.865383,28.8461548 L134.980767,28.7307702 L135.211536,28.6923087 L135.980767,28.3076934 L136.249998,28.1538473 L137.288459,27.6153859 L137.55769,27.4230783 L138.711535,26.8846169 L138.865381,26.8461554 L139.519227,26.5384632 L139.980766,26.1923094 L140.59615,25.8846172 L140.788458,25.7307711 L141.09615,25.5384635 L141.288458,25.3846174 L141.749996,25.0769252 L142.326919,24.7307714 L143.519226,24.4615407 L144.057688,24.4615407 L144.480764,24.5384638 L144.86538,24.769233 L144.903841,24.8076945 C145.096149,24.8846175 145.326918,25.0384636 145.557687,25.4230789 L145.557687,25.6538481 L145.519226,25.7692326 L145.365379,26.0000018 L145.288456,26.3846171 L144.942303,26.6153862 L144.788457,26.7692323 L144.442303,27.2692322 L144.134611,27.5384629 L143.326919,28.4615395 L143.249995,28.5769241 L142.86538,29.1153855 L142.749996,29.3461546 L142.673073,29.5384623 C142.634611,29.6538469 142.557688,29.6538469 142.557688,29.6923084 C142.673073,29.6923084 142.749996,29.6538469 142.903842,29.6538469 L143.288457,29.6153853 L143.442303,29.6153853 L143.942303,29.5000008 L144.36538,29.4230777 L144.596149,29.3461546 L145.096149,29.2307701 L146.442302,28.8461548 L146.63461,28.7692317 L146.980764,28.6923087 L147.442302,28.5384626 L147.788456,28.3846165 L147.942302,28.3461549 L148.096148,28.2307704 L149.442301,27.8846166 L149.788455,27.769232 L149.90384,27.6538475 L151.788454,27.1153861 L152.134608,27.038463 L152.903839,26.8076939 C152.9423,26.8076939 153.173069,26.8076939 153.211531,26.8461554 C153.326916,26.8846169 153.557685,26.9230785 153.596146,26.9230785 L153.596146,27.5769244 L153.211531,27.9230782 L152.788454,27.9230782 L152.211531,28.0769243 L151.749993,28.3076934 L151.519224,28.3076934 L150.980762,28.4615395 L150.749993,28.5384626 L149.826917,28.9615394 L149.173071,29.2692316 L148.40384,29.5000008 L147.557687,29.807693 L147.326917,29.884616 L147.173071,29.9230775 L146.865379,30.1538467 L146.288456,30.3461543 L145.980764,30.538462 L145.826918,30.615385 L144.86538,31.0000003 L144.557687,31.1538464 L143.519226,31.5384617 L143.096149,31.6923078 C143.019226,31.7307693 142.86538,31.8461539 142.826919,31.8461539 L142.249996,32 L141.749996,32 L141.403842,31.9615385 L141.211535,31.8846154 L140.942304,31.8076924 L140.59615,31.4230771 L140.59615,31.0384618 C140.557689,30.8461542 140.519227,30.615385 140.59615,30.4615389 L140.788458,30.0384621 L140.788458,29.9615391 L141.134612,29.5000008 L141.249996,29.3076931 L141.557688,28.9230779 Z M170.730763,32.0769231 L170.269225,31.6153847 C170.192302,31.5384617 170.076917,31.4230771 170.076917,31.346154 C169.999994,31.1153849 169.999994,30.7307696 169.999994,30.4615389 C169.999994,30.3461543 170.076917,30.2307698 170.076917,30.1153852 L170.307686,29.4230777 C170.346148,29.3076931 170.423071,29.2692316 170.461532,29.153847 L170.730763,28.7692317 L171.076917,28.3461549 L171.461532,27.769232 L171.807686,27.3846168 L171.923071,27.1538476 L172.076917,26.9230785 C171.807686,27.0769246 171.538455,27.2692322 171.307686,27.3846168 L170.999994,27.6538475 L170.769225,27.8076936 L170.461532,28.0000012 L170.192302,28.1153858 L169.423071,28.5384626 L169.307687,28.6538472 L168.769225,29.1153855 L168.576918,29.1923085 L167.923072,29.6153853 L167.192303,30.1923082 L166.999995,30.3846159 L166.538457,30.6923081 L166.384611,30.8076927 L166.11538,31.0000003 L165.923072,31.1153849 L165.653842,31.269231 L165.307688,31.5384617 L165.269226,31.5769232 C165.230765,31.6153847 165.076919,31.6923078 165.038457,31.6923078 C164.461534,32.1153846 164.038457,32.3076922 163.461535,32.3846153 L163.269227,32.3846153 C162.730766,32.3846153 162.461535,32 162.34615,31.5384617 C162.307689,31.3076925 162.269227,30.8461542 162.538458,29.7692314 C162.538458,29.6923084 162.615381,29.5000008 162.615381,29.4615392 L162.769227,29.1153855 L163.307688,28.0384627 L163.423073,27.8846166 L163.923073,27.0769246 C163.999996,26.9230785 164.153842,26.7692323 164.230765,26.6153862 L164.230765,26.5384632 L164.653842,26.0769249 L164.769227,25.8076942 L164.961534,25.576925 L165.846149,24.3076946 L166.576918,23.1923104 L167.192303,22.4615413 L167.576918,22.000003 L167.730764,21.8461569 L167.461533,21.8461569 L166.923072,22.000003 L166.88461,22.000003 L166.11538,22.3461568 L165.653842,22.653849 L164.34615,23.384618 L164.038457,23.6538487 L162.692304,24.4615407 L161.84615,24.9615406 L161.730766,25.0384636 L161.346151,25.3076943 L159.653843,26.5769247 L159.115382,27.1538476 L158.576921,27.5384629 L157.999998,28.0000012 L157.076921,28.9230779 L156.846152,29.076924 L156.230768,29.5384623 L155.576922,30.1923082 L155.115383,30.6923081 L154.923076,30.8461542 L154.846153,30.8846157 C154.807691,30.9615388 154.653845,31.0769234 154.615383,31.1538464 L154.038461,31.6538463 L153.807691,31.8461539 L153.384615,32.2307692 L153.230768,32.3846153 L152.807692,32.8461536 L152.307692,33.2307689 L152.115384,33.4999995 L151.730769,33.8846148 L151.461538,34.192307 L150.923077,34.6538454 L150.692308,34.923076 L150.5,35.1538452 L150.5,35.1923067 L150.230769,35.4999989 L149.73077,35.8461527 L149.5,35.9999988 L148.961539,36.1153834 L148.615385,36.1153834 L148.115385,36.0384603 L147.769232,35.6538451 C147.73077,35.6153835 147.576924,35.4615374 147.576924,35.4230759 L147.576924,34.9999991 L147.653847,34.6538454 L147.692309,34.3846147 L148.038462,33.9615379 L148.076924,33.8076918 L148.269231,33.4230765 L149.192308,32.1923076 L149.307693,32 L149.692308,31.4230771 L150.038462,31.0384618 L150.192308,30.8461542 C150.192308,30.8076927 150.269231,30.6538466 150.269231,30.615385 L150.5,30.3461543 L150.461539,30.3846159 L150.730769,30.0000006 L150.961538,29.7692314 L151.076923,29.5769238 L151.269231,29.2692316 L151.961538,28.3076934 L152.153846,28.0769243 C152.153846,28.0384627 152.230769,27.8846166 152.26923,27.8461551 L153.038461,26.8846169 L153.26923,26.5000017 L153.961537,25.6153865 C154.115384,25.4230789 154.26923,25.1153867 154.423076,24.9615406 L154.576924,24.7692348 C154.576924,24.7692348 154.615383,24.7307714 154.615383,24.6923099 L155.076922,24.0000024 L155.192306,23.7692333 L155.53846,23.1153873 L155.807691,22.8076951 L155.999998,22.5000029 L156.423075,21.8076954 L156.653844,21.3461571 L156.730767,21.1538494 C156.730767,21.1153879 156.80769,21.0000033 156.80769,20.9615418 L156.961537,20.7307726 L157.269229,20.1153882 C157.30769,20.0769267 157.346152,20.0384651 157.346152,20.0000036 L157.653844,19.5000038 L157.846152,19.2692346 L158.153844,19.0000039 L158.230767,18.9615424 L158.461536,18.8076963 L158.769228,18.7692348 L159.30769,18.7692348 C159.57692,19.0000039 159.884613,19.1153885 159.961536,19.7307729 L159.884613,20.0000036 L159.80769,20.3461574 L159.269228,21.0384648 L158.961536,21.4615416 L158.30769,22.1153876 L157.999998,22.5769259 L157.999998,22.6153874 L157.538459,23.3076949 L157.461536,23.5000026 L157.153844,23.9230794 L156.999998,24.1538485 L156.730767,24.5000023 L156.423075,24.8846175 L156.03846,25.3461559 L155.461537,26.0000018 L155.03846,26.5769247 C154.999999,26.6153862 154.923076,26.6538478 154.923076,26.6923093 L154.423076,27.3076937 L154.153845,27.6538475 L153.461538,28.6538472 L153.26923,28.8846163 C153.26923,28.9230779 153.230768,29.0384624 153.230768,29.0384624 L152.807692,29.4230777 L152.461538,29.8461545 L152.076923,30.4230774 C152,30.5769235 151.923077,30.5769235 151.807692,30.7692311 L151.230769,31.5384617 L150.576923,32.4999998 C150.615385,32.4615383 150.692308,32.3846153 151,32.1153846 L151.692307,31.6538463 L152.038461,31.346154 L152.230769,31.1923079 L152.499999,30.9615388 L152.884615,30.5769235 L153.653845,29.884616 L154.230768,29.4615392 L154.884614,29.0000009 L155.153845,28.6923087 L155.53846,28.3461549 L155.999998,28.0384627 L156.384614,27.692309 L156.961537,27.1923091 L157.384613,26.8076939 L157.615383,26.6153862 L158.076921,26.1923094 L158.653844,25.8076942 L158.923074,25.576925 L159.115382,25.3461559 L159.346151,25.1923097 L159.653843,24.9230791 L159.692305,24.8846175 L159.999997,24.6923099 L160.346151,24.3076946 L161.346151,23.5384641 L161.653843,23.2692334 L162.192304,22.8846181 L162.615381,22.653849 L163.115381,22.3461568 L163.269227,22.2307722 L163.538458,22.0769261 L163.692304,22.000003 C163.807688,21.92308 163.961534,21.7307723 164.076919,21.6538493 L164.269227,21.5769262 L164.692303,21.3076955 L165.038457,21.1538494 L165.538457,20.8076957 L165.576919,20.7307726 L166.730764,20.1923113 L167.38461,19.9230806 L168.230764,19.7307729 L168.730764,19.6153884 L169.153841,19.5384653 L169.576917,19.5384653 L169.88461,19.5769268 L170.192302,19.884619 L170.307686,20.2307728 L170.230763,20.8076957 L170.076917,21.0000033 C169.961533,21.2307725 169.615379,21.6923108 169.38461,21.9615415 L169.076918,22.3846183 L168.961533,22.5384644 L168.576918,22.9230797 C168.499995,23.0000027 168.423072,23.1923104 168.346149,23.2692334 L167.730764,23.8846178 L167.307687,24.3846177 L166.961534,24.846156 L165.923072,26.5384632 L165.423072,27.3076937 L165.192303,27.8461551 L164.999996,28.1538473 L164.769227,28.6153856 L164.61538,29.0000009 L164.499996,29.2692316 L164.307688,29.6923084 L164.192304,30.0384621 L164.153842,30.2692313 L164.192304,30.5769235 L164.230765,30.615385 L164.423073,30.615385 L164.61538,30.538462 L165.192303,30.0769237 L165.692303,29.6923084 C165.961534,29.4615392 166.269226,29.2307701 166.269226,29.2307701 L166.61538,28.9230779 L167.153841,28.5000011 L167.346149,28.3461549 C167.615379,28.1538473 167.923072,27.8846166 168.230764,27.7307705 L169.88461,26.5000017 L170.192302,26.2692325 L170.576917,25.9615403 L171.038455,25.6923096 L171.230763,25.5384635 L171.576917,25.3461559 L171.692301,25.3076943 L172.076917,25.1538482 L172.42307,25.0769252 L172.692301,25.0000021 L172.961532,24.9615406 L173.192301,24.9615406 L173.499993,25.0384636 L173.846147,25.3846174 L173.846147,25.6923096 L173.769224,25.9230788 L173.692301,26.3461556 L173.538455,26.6538478 C173.499993,26.8076939 173.384609,26.96154 173.346147,27.1153861 L172.92307,27.692309 L172.65384,28.3846165 L172.615378,28.4615395 L172.307686,28.8461548 L171.884609,29.4230777 L171.807686,29.5384623 L171.499994,30.0384621 L171.384609,30.3076928 C171.269225,30.4615389 171.307686,30.6923081 171.307686,30.8076927 C171.65384,31.0000003 172.115378,31.0769234 172.615378,31.0000003 L172.961532,30.9615388 C172.961532,30.9615388 172.961532,30.9230772 173.615378,30.8076927 L173.846147,30.7307696 L174.499993,30.5000005 L174.730762,30.4615389 C174.999993,30.3461543 175.1923,30.1923082 175.461531,30.0769237 L176.038454,29.7307699 L176.269223,29.6923084 L176.499992,29.5384623 L176.538454,29.5384623 L177.153838,29.1923085 L177.384607,29.153847 L177.538453,29.076924 L178.038453,28.8461548 L178.538453,28.5769241 L179.692299,28.0000012 L179.73076,27.9615397 L181.115375,27.2692322 L181.307683,27.1153861 L181.692298,27.038463 L181.961529,26.8461554 L182.461529,26.5384632 L182.807683,26.307694 L183.153836,26.2692325 L183.384606,26.4615401 L183.49999,26.6923093 L183.461529,27.1923091 L183.076913,27.3076937 L182.884606,27.4230783 L182.615375,27.692309 L182.461529,27.7307705 L181.307683,28.4615395 L180.384606,28.9230779 L179.96153,29.1923085 L179.692299,29.3461546 L178.769222,29.807693 L178.576915,29.9230775 L178.269222,30.1153852 L178.192299,30.1538467 L178.076915,30.2307698 L177.538453,30.538462 L177.46153,30.538462 C177.384607,30.5769235 177.230761,30.7307696 177.230761,30.7307696 L176.846146,30.8846157 L176.307685,31.0769234 L175.653839,31.3846156 C175.538454,31.4230771 175.346146,31.5000002 175.307685,31.5384617 L175.1923,31.5384617 L174.807685,31.6923078 C174.769223,31.6923078 174.6923,31.7307693 174.6923,31.7307693 L174.307685,31.8846154 L174.115378,31.9230769 L173.576916,32.0769231 L173.115378,32.2307692 L172.92307,32.2307692 C172.65384,32.3076922 172.384609,32.3461537 172.076917,32.3461537 L171.692301,32.3461537 C171.499994,32.3461537 171.307686,32.3461537 171.115378,32.2692307 L170.730763,32.0769231 Z M200.288455,32.0769231 L199.826917,31.6153847 C199.749994,31.5384617 199.63461,31.4230771 199.63461,31.346154 C199.557686,31.1153849 199.557686,30.7307696 199.557686,30.4615389 C199.557686,30.3461543 199.63461,30.2307698 199.63461,30.1153852 L199.865379,29.4230777 C199.90384,29.3076931 199.980763,29.2692316 200.019225,29.153847 L200.288455,28.7692317 L200.634609,28.3461549 L201.019224,27.769232 L201.365378,27.3846168 L201.480763,27.1538476 L201.634609,26.9230785 C201.365378,27.0769246 201.096148,27.2692322 200.865378,27.3846168 L200.557686,27.6538475 L200.326917,27.8076936 L200.019225,28.0000012 L199.749994,28.1153858 L198.980764,28.5384626 L198.865379,28.6538472 L198.326918,29.1153855 L198.13461,29.1923085 L197.480764,29.6153853 L196.749995,30.1923082 L196.557687,30.3846159 L196.096149,30.6923081 L195.942303,30.8076927 L195.673072,31.0000003 L195.480765,31.1153849 L195.211534,31.269231 L194.86538,31.5384617 L194.826919,31.5769232 C194.788457,31.6153847 194.634611,31.6923078 194.59615,31.6923078 C194.019227,32.1153846 193.59615,32.3076922 193.019227,32.3846153 L192.826919,32.3846153 C192.288458,32.3846153 192.019227,32 191.903843,31.5384617 C191.865381,31.3076925 191.82692,30.8461542 192.09615,29.7692314 C192.09615,29.6923084 192.173073,29.5000008 192.173073,29.4615392 L192.326919,29.1153855 L192.865381,28.0384627 L192.980765,27.8846166 L193.480765,27.0769246 C193.557688,26.9230785 193.711534,26.7692323 193.788457,26.6153862 L193.788457,26.5384632 L194.211534,26.0769249 L194.326919,25.8076942 L194.519226,25.576925 L195.403842,24.3076946 L196.134611,23.1923104 L196.749995,22.4615413 L197.13461,22.000003 L197.288456,21.8461569 L197.019226,21.8461569 L196.480764,22.000003 L196.442303,22.000003 L195.673072,22.3461568 L195.211534,22.653849 L193.903842,23.384618 L193.59615,23.6538487 L192.249996,24.4615407 L191.403843,24.9615406 L191.288458,25.0384636 L190.903843,25.3076943 L189.211536,26.5769247 L188.673074,27.1538476 L188.134613,27.5384629 L187.55769,28.0000012 L186.634613,28.9230779 L186.403844,29.076924 L185.78846,29.5384623 L185.134614,30.1923082 L184.673076,30.6923081 L184.480768,30.8461542 L184.403845,30.8846157 C184.365383,30.9615388 184.211537,31.0769234 184.173076,31.1538464 L183.596153,31.6538463 L183.365384,31.8461539 L182.942307,32.2307692 L182.788461,32.3846153 L182.365384,32.8461536 L181.865384,33.2307689 L181.673076,33.4999995 L181.288461,33.8846148 L181.019231,34.192307 L180.480769,34.6538454 L180.25,34.923076 L180.057692,35.1538452 L180.057692,35.1923067 L179.788462,35.4999989 L179.288462,35.8461527 L179.057693,35.9999988 L178.519231,36.1153834 L178.173078,36.1153834 L177.673078,36.0384603 L177.326924,35.6538451 C177.288462,35.6153835 177.134616,35.4615374 177.134616,35.4230759 L177.134616,34.9999991 L177.211539,34.6538454 L177.250001,34.3846147 L177.596155,33.9615379 L177.634616,33.8076918 L177.826924,33.4230765 L178.75,32.1923076 L178.865385,32 L179.25,31.4230771 L179.596154,31.0384618 L179.75,30.8461542 C179.75,30.8076927 179.826923,30.6538466 179.826923,30.615385 L180.057692,30.3461543 L180.019231,30.3846159 L180.288462,30.0000006 L180.519231,29.7692314 L180.634615,29.5769238 L180.826923,29.2692316 L181.51923,28.3076934 L181.711538,28.0769243 C181.711538,28.0384627 181.788461,27.8846166 181.826923,27.8461551 L182.596153,26.8846169 L182.826922,26.5000017 L183.51923,25.6153865 C183.673076,25.4230789 183.826922,25.1153867 183.980768,24.9615406 L184.134616,24.7692348 C184.134616,24.7692348 184.173076,24.7307714 184.173076,24.6923099 L184.634614,24.0000024 L184.749999,23.7692333 L185.096152,23.1153873 L185.365383,22.8076951 L185.557691,22.5000029 L185.980767,21.8076954 L186.211537,21.3461571 L186.28846,21.1538494 C186.28846,21.1153879 186.365383,21.0000033 186.365383,20.9615418 L186.519229,20.7307726 L186.826921,20.1153882 C186.865383,20.0769267 186.903844,20.0384651 186.903844,20.0000036 L187.211536,19.5000038 L187.403844,19.2692346 L187.711536,19.0000039 L187.788459,18.9615424 L188.019228,18.8076963 L188.326921,18.7692348 L188.865382,18.7692348 C189.134613,19.0000039 189.442305,19.1153885 189.519228,19.7307729 L189.442305,20.0000036 L189.365382,20.3461574 L188.82692,21.0384648 L188.519228,21.4615416 L187.865382,22.1153876 L187.55769,22.5769259 L187.55769,22.6153874 L187.096152,23.3076949 L187.019229,23.5000026 L186.711537,23.9230794 L186.55769,24.1538485 L186.28846,24.5000023 L185.980767,24.8846175 L185.596152,25.3461559 L185.019229,26.0000018 L184.596153,26.5769247 C184.557691,26.6153862 184.480768,26.6538478 184.480768,26.6923093 L183.980768,27.3076937 L183.711537,27.6538475 L183.01923,28.6538472 L182.826922,28.8846163 C182.826922,28.9230779 182.788461,29.0384624 182.788461,29.0384624 L182.365384,29.4230777 L182.01923,29.8461545 L181.634615,30.4230774 C181.557692,30.5769235 181.480769,30.5769235 181.365384,30.7692311 L180.788461,31.5384617 L180.134615,32.4999998 C180.173077,32.4615383 180.25,32.3846153 180.557692,32.1153846 L181.25,31.6538463 L181.596153,31.346154 L181.788461,31.1923079 L182.057692,30.9615388 L182.442307,30.5769235 L183.211538,29.884616 L183.78846,29.4615392 L184.442306,29.0000009 L184.711537,28.6923087 L185.096152,28.3461549 L185.557691,28.0384627 L185.942306,27.692309 L186.519229,27.1923091 L186.942306,26.8076939 L187.173075,26.6153862 L187.634613,26.1923094 L188.211536,25.8076942 L188.480767,25.576925 L188.673074,25.3461559 L188.903844,25.1923097 L189.211536,24.9230791 L189.249997,24.8846175 L189.557689,24.6923099 L189.903843,24.3076946 L190.903843,23.5384641 L191.211535,23.2692334 L191.749997,22.8846181 L192.173073,22.653849 L192.673073,22.3461568 L192.826919,22.2307722 L193.09615,22.0769261 L193.249996,22.000003 C193.365381,21.92308 193.519227,21.7307723 193.634611,21.6538493 L193.826919,21.5769262 L194.249996,21.3076955 L194.59615,21.1538494 L195.096149,20.8076957 L195.134611,20.7307726 L196.288457,20.1923113 L196.942303,19.9230806 L197.788456,19.7307729 L198.288456,19.6153884 L198.711533,19.5384653 L199.13461,19.5384653 L199.442302,19.5769268 L199.749994,19.884619 L199.865379,20.2307728 L199.788456,20.8076957 L199.63461,21.0000033 C199.519225,21.2307725 199.173071,21.6923108 198.942302,21.9615415 L198.63461,22.3846183 L198.519225,22.5384644 L198.13461,22.9230797 C198.057687,23.0000027 197.980764,23.1923104 197.903841,23.2692334 L197.288456,23.8846178 L196.86538,24.3846177 L196.519226,24.846156 L195.480765,26.5384632 L194.980765,27.3076937 L194.749996,27.8461551 L194.557688,28.1538473 L194.326919,28.6153856 L194.173073,29.0000009 L194.057688,29.2692316 L193.86538,29.6923084 L193.749996,30.0384621 L193.711534,30.2692313 L193.749996,30.5769235 L193.788457,30.615385 L193.980765,30.615385 L194.173073,30.538462 L194.749996,30.0769237 L195.249995,29.6923084 C195.519226,29.4615392 195.826918,29.2307701 195.826918,29.2307701 L196.173072,28.9230779 L196.711533,28.5000011 L196.903841,28.3461549 C197.173072,28.1538473 197.480764,27.8846166 197.788456,27.7307705 L199.442302,26.5000017 L199.749994,26.2692325 L200.134609,25.9615403 L200.596148,25.6923096 L200.788455,25.5384635 L201.134609,25.3461559 L201.249994,25.3076943 L201.634609,25.1538482 L201.980763,25.0769252 L202.249993,25.0000021 L202.519224,24.9615406 L202.749993,24.9615406 L203.057685,25.0384636 L203.403839,25.3846174 L203.403839,25.6923096 L203.326916,25.9230788 L203.249993,26.3461556 L203.096147,26.6538478 C203.057685,26.8076939 202.942301,26.96154 202.903839,27.1153861 L202.480763,27.692309 L202.211532,28.3846165 L202.17307,28.4615395 L201.865378,28.8461548 L201.442301,29.4230777 L201.365378,29.5384623 L201.057686,30.0384621 L200.942301,30.3076928 C200.826917,30.4615389 200.865378,30.6923081 200.865378,30.8076927 C201.211532,31.0000003 201.67307,31.0769234 202.17307,31.0000003 L202.519224,30.9615388 C202.519224,30.9615388 202.519224,30.9230772 203.17307,30.8076927 L203.403839,30.7307696 L204.057685,30.5000005 L204.288454,30.4615389 C204.557685,30.3461543 204.749993,30.1923082 205.019223,30.0769237 L205.596146,29.7307699 L205.826915,29.6923084 L206.057685,29.5384623 L206.096146,29.5384623 L206.71153,29.1923085 L206.9423,29.153847 L207.096146,29.076924 L207.596146,28.8461548 L208.096145,28.5769241 L209.249991,28.0000012 L209.288453,27.9615397 L210.673068,27.2692322 L210.865375,27.1153861 L211.249991,27.038463 L211.519221,26.8461554 L212.019221,26.5384632 L212.365375,26.307694 L212.711529,26.2692325 L212.942298,26.4615401 L213.057682,26.6923093 L213.019221,27.1923091 L212.634606,27.3076937 L212.442298,27.4230783 L212.173067,27.692309 L212.019221,27.7307705 L210.865375,28.4615395 L209.942299,28.9230779 L209.519222,29.1923085 L209.249991,29.3461546 L208.326915,29.807693 L208.134607,29.9230775 L207.826915,30.1153852 L207.749992,30.1538467 L207.634607,30.2307698 L207.096146,30.538462 L207.019223,30.538462 C206.9423,30.5769235 206.788454,30.7307696 206.788454,30.7307696 L206.403838,30.8846157 L205.865377,31.0769234 L205.211531,31.3846156 C205.096146,31.4230771 204.903839,31.5000002 204.865377,31.5384617 L204.749993,31.5384617 L204.365377,31.6923078 C204.326916,31.6923078 204.249993,31.7307693 204.249993,31.7307693 L203.865377,31.8846154 L203.67307,31.9230769 L203.134608,32.0769231 L202.67307,32.2307692 L202.480763,32.2307692 C202.211532,32.3076922 201.942301,32.3461537 201.634609,32.3461537 L201.249994,32.3461537 C201.057686,32.3461537 200.865378,32.3461537 200.673071,32.2692307 L200.288455,32.0769231 Z M212.461538,28.5384626 L212.153845,29.0384624 C212.115384,29.0384624 212.115384,29.0384624 212.115384,29.076924 L211.730769,29.8461545 C211.730769,30.1153852 211.692307,30.6538466 211.692307,30.8846157 C211.653846,31.0000003 211.653846,31.269231 211.76923,31.5000002 C211.846153,31.6153847 212.038461,31.6538463 212.615384,31.7692308 L213.153845,31.9230769 L213.653845,31.9230769 L214.230768,31.8461539 L216.923075,31.2307695 L217.576921,30.9615388 L218.961536,30.5000005 L219.307689,30.3076928 L219.538459,30.2692313 L221.807689,29.3076931 L222.230765,29.1153855 L222.653842,29.0384624 L223.961534,28.5769241 L224.076919,28.5384626 C224.769226,28.2307704 225.346149,27.9230782 225.884611,27.692309 L227.423072,26.96154 L227.961533,26.6923093 L228.115379,26.6538478 L228.499994,26.4615401 L229.076917,26.2692325 L230.230763,25.7307711 L230.461532,25.5384635 L232.230762,24.4615407 L232.999993,24.0384639 C233.269224,23.8461563 233.307685,23.8461563 233.461531,23.7692333 C233.615377,23.6538487 233.730762,23.6153871 233.999993,23.5769256 C234.230762,23.5769256 234.538454,23.5769256 234.653839,23.8461563 C234.769223,24.0769255 234.499993,24.5000023 234.230762,24.6538484 L233.92307,24.8076945 L233.6923,24.9615406 L232.884608,25.4615404 L232.384609,25.8076942 L232.307686,25.8461557 L231.499993,26.307694 L231.192301,26.5000017 L230.923071,26.6538478 L230.730763,26.8076939 L230.499994,26.8846169 L230.423071,26.8846169 L229.423071,27.3846168 C229.346148,27.4230783 229.192302,27.5384629 229.192302,27.5384629 L228.807687,27.7307705 C228.730764,27.769232 228.461533,27.8846166 228.307687,28.0000012 L226.846149,28.6538472 L226.38461,28.8846163 C226.076918,29.0384624 225.769226,29.2307701 225.461534,29.3461546 L225.346149,29.4615392 L223.576919,30.3076928 L222.615381,30.6923081 L222.269227,30.7692311 L221.923073,30.9230772 C221.461535,31.1153849 220.923074,31.3076925 220.423074,31.5000002 C220.230766,31.5769232 220.038458,31.7307693 219.846151,31.8076924 L218.615382,32.4230768 L217.846151,32.5769229 L217.230767,32.7692305 L216.576921,32.9999997 L215.923075,33.1153843 L215.692306,33.1923073 C215.53846,33.2692304 215.269229,33.3076919 214.923075,33.384615 L214.269229,33.5769226 L214.03846,33.6153841 L213.307691,33.7692302 L212.576922,33.8461533 L211.615384,33.6923072 L210.653846,33.2307689 L210.115385,32.4615383 L209.923077,31.9615385 L209.807692,31.4230771 L209.769231,30.8461542 L209.807692,30.538462 L209.807692,30.1923082 L210.076923,29.2307701 L210.346154,28.7307702 C210.423077,28.5000011 210.538461,28.3846165 210.615384,28.1538473 L211.038461,27.4615398 L211.538461,26.8846169 L212.230768,26.0769249 L212.76923,25.6923096 L213.230768,25.2692328 L213.576922,24.9615406 L214.115383,24.4615407 L214.192306,24.3846177 C214.230768,24.3076946 214.346152,24.2307716 214.384614,24.1538485 L214.692306,23.8846178 L214.999998,23.6923102 L215.576921,23.384618 L215.653844,23.3461565 L215.80769,23.2307719 C216.615383,22.653849 217.461536,22.000003 218.384613,21.4615416 L218.846151,21.1153879 L219.846151,20.6153881 L220.192305,20.4230804 L220.384612,20.3846189 L220.884612,20.3076958 C221.499996,20.1153882 221.769227,19.9615421 222.038458,19.884619 L222.884611,19.6923114 L223.269227,19.6923114 C223.384611,19.6923114 223.499996,19.6538499 223.61538,19.6538499 L224.192303,19.6538499 C224.346149,19.6538499 224.576919,19.6923114 224.730765,19.6923114 C224.961534,19.7692345 225.076918,19.8461575 225.153842,19.884619 L225.576918,20.1153882 C225.807687,20.3076958 225.999995,20.4615419 226.076918,20.7692342 L226.153841,21.192311 L226.192303,21.3461571 L226.153841,21.7692339 L226.038457,22.1538491 L225.884611,22.653849 L225.384611,23.2307719 L224.923072,23.5769256 L224.538457,23.9230794 L224.076919,24.2307716 L222.884611,24.9615406 L222.653842,25.1538482 L222.423073,25.1923097 C221.499996,25.8076942 220.653843,26.307694 219.769228,26.7692323 L219.57692,26.8846169 L218.461536,27.4230783 L217.961536,27.769232 L216.923075,28.2307704 L216.230767,28.5000011 L215.076921,28.6923087 L214.423076,28.7307702 L214.076922,28.7307702 L213.576922,28.5000011 L213.53846,28.1153858 L213.576922,27.8076936 C214.192306,27.0769246 214.53846,26.9230785 215.153845,26.6923093 C215.192306,26.6923093 215.269229,26.6153862 215.307691,26.6153862 C215.692306,26.5769247 216.192306,26.4615401 216.576921,26.4230786 L216.999998,26.307694 L217.384613,26.1923094 L217.769228,26.0384633 L218.615382,25.7692326 L219.461536,25.3076943 L220.269228,24.9615406 C220.653843,24.769233 221.192304,24.4230792 221.57692,24.2307716 L221.84615,24.0769255 L222.230765,23.7692333 L223.807688,22.5384644 C223.84615,22.5000029 223.999996,22.3461568 224.038457,22.2692337 C224.076919,22.1923107 224.076919,22.1923107 224.076919,22.1153876 L224.153842,21.92308 L224.346149,21.3846186 C224.307688,21.3461571 224.269226,21.3461571 224.269226,21.3076955 L223.961534,21.1153879 C223.884611,21.0769264 223.84615,21.0384648 223.807688,21.0384648 L223.384611,21.0384648 L223.115381,21.0769264 L222.884611,21.1153879 C222.038458,21.3076955 221.153843,21.6923108 220.57692,22.000003 L220.307689,22.1153876 L219.846151,22.3461568 L219.769228,22.4230798 L218.923074,22.8076951 L218.769228,22.8846181 L218.076921,23.3076949 L217.576921,23.7307717 L216.961536,24.0769255 L216.846152,24.115387 L216.230767,24.5769253 C216.153844,24.6538484 216.076921,24.6538484 215.999998,24.7307714 C215.961537,24.8076945 215.846152,24.9230791 215.80769,24.9615406 L215.230768,25.500002 L214.961537,25.7692326 L214.53846,26.1538479 L214.03846,26.6923093 L213.653845,27.1153861 L213.384614,27.3846168 C213.307691,27.4615398 213.230768,27.6538475 213.153845,27.7307705 L212.884614,28.1153858 L212.461538,28.5384626 Z M232.78846,27.1538476 L232.403845,27.7307705 L232.557691,27.6153859 L233.211537,27.0769246 L233.557691,26.7307708 L233.980768,26.4230786 L234.634614,26.0000018 L235.365383,25.4230789 L236.211536,24.8076945 L237.403843,23.9615409 L237.55769,23.8461563 L237.980766,23.6153871 L238.249997,23.3461565 L238.442305,23.3076949 C238.557689,23.2307719 238.711535,23.1538488 238.788458,23.0769258 L239.557689,22.6153874 L239.903843,22.2692337 L240.134612,22.1153876 L240.673073,21.92308 L241.09615,21.5384647 L241.59615,21.2307725 L242.634611,20.8076957 L242.673073,20.8076957 C242.673073,20.8076957 243.019226,20.6538496 243.134611,20.5769265 C243.288457,20.5000035 243.557688,20.3846189 244.211534,20.0000036 L244.942303,19.7307729 L246.096149,19.2307731 L246.519225,19.076927 L246.826918,18.9615424 L247.288456,18.9230809 C247.980763,18.7307732 248.634609,18.6153887 249.211532,18.6538502 C249.326917,18.6923117 249.442301,18.7307732 249.557686,18.7307732 C249.865378,18.8846193 250.096147,19.0000039 250.249993,19.15385 C250.326916,19.2307731 250.519224,19.4230807 250.557686,19.5384653 L250.711532,19.9615421 L250.634609,20.9230803 L250.480763,21.3846186 L250.288455,21.6923108 L249.980763,22.000003 L249.673071,22.1923107 L249.365378,22.2692337 L249.134609,22.3076952 L248.826917,22.2692337 L248.442302,21.8846184 L248.40384,21.6538493 L248.365379,21.4615416 L248.365379,21.269234 L248.288456,21.0000033 L248.249994,20.7307726 L248.173071,20.4615419 L247.865379,20.4615419 L247.326917,20.6923111 L247.057687,20.7307726 L246.865379,20.6923111 L246.442302,20.8846187 L246.096149,20.9230803 C245.63461,21.0000033 245.13461,21.1538494 244.711534,21.2307725 C244.211534,21.4615416 243.634611,21.7307723 243.134611,21.92308 C243.096149,21.9615415 242.942303,22.0384645 242.903842,22.0384645 L242.711534,22.2307722 L241.173073,23.0384642 L240.634612,23.384618 L240.365381,23.6153871 L239.634612,24.0000024 L239.480766,24.0769255 L239.134612,24.3846177 L238.557689,24.769233 L238.32692,25.0000021 L237.211536,25.7307711 L236.211536,26.6153862 L235.288459,27.5000014 L235.019229,27.692309 L234.55769,28.1923088 L233.980768,28.6923087 L233.673075,28.8846163 C233.596152,28.9615394 233.442306,29.076924 233.403845,29.153847 L233.057691,29.4615392 L232.711537,29.8461545 L232.51923,30.0384621 L232.326922,30.1923082 L231.942307,30.538462 L231.826922,30.7307696 L231.596153,30.9230772 L231.442307,31.1153849 L231.057692,31.4615386 L230.173076,32.5769229 L229.596154,33.4230765 L229.25,33.8461533 L228.75,34.2692301 C228.596154,34.3461531 228.365385,34.3846147 228.173077,34.3846147 C227.826923,34.3846147 227.557693,34.2307686 227.48077,33.9999994 C227.365385,33.8461533 227.25,33.1538458 227.48077,32.653846 L227.788462,31.9615385 L228.25,31.1923079 L228.596154,30.7692311 L228.865384,30.4230774 L229.326923,29.807693 L229.596154,29.4230777 L229.826923,29.076924 L229.980769,28.7307702 L230.365384,28.2307704 L230.442307,27.9615397 L230.903845,27.4230783 L231.01923,27.3076937 C231.173076,27.1153861 231.326922,26.7692323 231.480768,26.5769247 L231.711537,26.230771 L232.134614,25.6153865 L232.480768,25.0000021 L232.596153,24.8076945 L232.749999,24.4615407 L232.903845,24.2692331 L232.903845,24.2307716 L233.211537,23.5000026 L233.480768,22.9615412 L233.903845,22.2307722 L234.28846,21.269234 L234.326921,21.1153879 L234.480767,20.8846187 L234.980767,20.3846189 L235.596152,19.9615421 L235.826921,19.884619 L236.096152,19.9230806 C236.634613,20.1538497 236.826921,20.4230804 236.903844,20.6923111 L236.903844,20.9230803 C236.903844,21.5000032 236.55769,22.000003 236.211536,22.4230798 L235.403844,23.3076949 L235.05769,23.6923102 L234.980767,23.8076948 L234.826921,24.0769255 C234.865383,24.0384639 234.596152,24.4230792 234.403844,24.6923099 L233.865383,25.4615404 L233.711537,25.7692326 L233.403845,26.2692325 L233.096152,26.6153862 L233.096152,26.6538478 L232.78846,27.1538476 Z M277.249995,43.0769197 L277.134611,42.6538429 L277.019226,42.3461507 L276.826918,42.1153816 L276.673072,41.7692278 L276.480765,41.5384587 L276.480765,40.4615359 L276.211534,39.6153823 C276.173072,39.4999977 276.134611,39.4999977 276.134611,39.4230747 L276.019226,39.3076901 L275.86538,38.9230748 L275.673073,38.423075 L275.442303,37.6153829 C275.36538,37.3076907 275.36538,37.2307677 275.36538,37.1538446 L274.788457,35.9999988 L274.749996,35.7307681 L274.59615,35.576922 L274.480765,35.2692298 L274.249996,34.8846145 L274.211535,34.2307686 L273.59615,33.2692304 L273.249996,32.5384614 L272.59615,31.269231 L272.442304,30.9615388 L272.057689,30.0000006 L272.019228,29.8461545 L271.82692,29.4615392 L271.82692,29.3461546 C271.82692,29.3076931 271.711535,29.2307701 271.711535,29.2307701 L271.557689,28.9615394 L271.442305,28.7307702 L271.057689,28.1153858 L271.057689,28.0000012 L270.749997,27.5769244 L270.519228,27.0769246 L269.826921,26.230771 L269.596151,25.9230788 L269.442305,25.6923096 L269.019228,25.2307713 L268.442306,25.500002 L268.249998,25.6538481 L267.442306,26.0384633 L267.28846,26.1538479 L267.019229,26.2692325 L266.826921,26.3846171 L265.057691,27.3076937 C264.865384,27.4615398 264.711537,27.5384629 264.673076,27.5384629 L264.634614,27.5769244 L263.826926,28.076927 L263.173076,28.423078 L262.903846,28.6153856 L262.096154,29.0000009 L261.788461,29.2307701 L260.596154,29.9230775 C260.442308,30.0769237 260.365385,30.1153852 260.25,30.1538467 L260.173077,30.2307698 L259.903847,30.3846159 L259.326924,30.7307696 L257.826924,31.7307693 C257.826924,31.8461539 257.788463,31.9615385 257.788463,31.9615385 L257.403847,32 C256.673078,32.4615383 256.096155,32.9230766 255.519233,33.384615 L255.21154,33.6153841 L254.94231,33.8461533 L254.288464,34.4615377 L253.94231,34.9615376 L253.750002,35.1923067 C253.634618,35.3461528 253.519233,35.6153835 253.403849,35.7307681 C253.403849,35.7307681 253.44231,35.6923066 253.326925,35.9230757 L252.826926,36.2692295 L252.596156,36.3461525 L252.44231,36.307691 L252.326926,36.076927 L252.365387,35.6153835 L252.44231,35.3076913 C252.480772,35.2692298 252.519233,35.2307683 252.519233,35.1923067 L252.711541,34.8076915 C252.750003,34.6923069 252.903849,34.4230762 252.903849,34.4230762 L253.173079,33.9230763 L253.826925,33.2692304 L254.057695,33.1153843 L254.326925,32.8461536 L254.634617,32.5769229 L254.903848,32.3461537 L255.326925,32 L255.480771,31.8076924 L255.634617,31.6923078 L255.980771,31.3076925 L256.057694,31.269231 L256.403848,31.0384618 L256.634617,31.0000003 L256.788463,30.8461542 L257.096155,30.7307696 L257.519232,30.4615389 L257.788463,30.3076928 L257.903847,30.2307698 L258.173078,30.0000006 L258.250001,30.0000006 L258.826924,29.5384623 L259.173078,29.3076931 L259.48077,29.1153855 L260.096154,28.6923087 L260.173077,28.6923087 L261.019231,28.0000012 L261.326923,27.8461551 L261.557692,27.6153859 L262.057692,27.3076937 L262.51923,27.038463 L262.557692,26.96154 L263.326922,26.6538478 L263.596153,26.4615401 L263.980768,26.2692325 L264.51923,25.9615403 L266.096152,25.1538482 L266.403845,24.9615406 L266.865383,24.5384638 L267.634613,24.2692331 L267.980767,23.9230794 L267.749998,23.6923102 C267.519229,23.4230795 267.211537,23.0769258 266.826921,22.7692336 L265.480768,21.6153877 C264.980768,21.1153879 264.942307,20.8076957 265.01923,20.538465 C265.096153,20.2692343 265.749999,19.884619 266.019229,19.884619 C266.28846,19.884619 266.326922,19.9230806 266.480768,19.9615421 C266.519229,20.0000036 266.673075,20.0384651 266.711537,20.0384651 L266.942306,20.1153882 L267.749998,20.6923111 L267.78846,20.8461572 L267.903844,20.9615418 L268.211536,21.192311 L268.442306,21.6538493 L268.480767,21.8461569 L268.55769,22.000003 L268.55769,22.1153876 L268.903844,22.5000029 C269.019228,22.5000029 269.134613,22.5384644 269.173075,22.5384644 L269.211536,22.8461566 C269.249998,22.8461566 269.326921,22.8846181 269.326921,22.8846181 L269.55769,23.1153873 L269.865382,23.0000027 C269.980767,22.9615412 270.096151,22.8461566 270.211536,22.8076951 L271.557689,22.3846183 L271.82692,22.3076952 L271.865381,22.2692337 L272.788458,21.8076954 L272.980766,21.6923108 L274.980765,20.7307726 L275.288457,20.5000035 L275.442303,20.4230804 L275.942303,20.2307728 L276.673072,19.9615421 C277.36538,19.6923114 277.788457,19.5000038 278.249995,19.3846192 C278.826918,19.2307731 279.173072,19.15385 279.63461,19.076927 L280.288456,19.076927 C280.40384,19.076927 280.519225,19.076927 280.826917,19.15385 C281.134609,19.2692346 281.173071,19.4230807 281.249994,19.6153884 C281.249994,19.6923114 281.288456,19.807696 281.326917,19.9230806 L281.365379,20.1538497 L281.365379,20.3846189 L281.288456,20.6923111 L281.057686,21.0769264 L280.865379,21.4230801 L280.288456,21.8076954 C280.211533,21.8846184 280.096148,21.92308 280.057687,21.9615415 L279.749994,22.0384645 L279.557687,22.0769261 L279.288456,22.000003 L278.942302,21.6153877 L279.019225,21.1538494 L279.096148,20.8076957 L277.173072,21.2307725 L276.788457,21.3846186 L276.288457,21.5384647 L275.173073,22.0769261 L274.942304,22.2692337 L274.865381,22.3846183 L274.480765,22.4615413 L274.134612,22.6153874 L273.673073,22.8461566 L272.903843,23.2692334 L272.788458,23.3076949 L272.365381,23.5000026 L271.942304,23.7307717 L271.32692,23.9615409 L270.634613,24.4230792 L270.442305,24.5384638 L270.942305,25.2692328 L271.211535,25.500002 L271.211535,25.576925 L271.480766,25.8076942 L271.519228,25.8846172 L271.788458,26.3461556 L271.942304,26.6923093 L271.980766,26.9230785 L272.211535,27.3076937 C272.288458,27.5000014 272.403843,27.692309 272.557689,27.8846166 L272.749997,28.1153858 L272.980766,28.5000011 L273.211535,28.7692317 L273.249996,28.9615394 C273.288458,29.0384624 273.365381,29.153847 273.403843,29.153847 L273.59615,29.5000008 L273.673073,29.7307699 L273.749996,30.0000006 C273.865381,30.2307698 273.942304,30.3846159 274.173073,30.7307696 L274.403842,31.269231 L274.557688,31.8461539 L274.942304,32.3461537 L275.173073,32.9230766 L275.326919,33.5384611 L275.442303,33.8461533 C275.711534,34.4615377 275.903842,34.8846145 275.980765,35.0384606 L276.134611,35.4230759 L276.211534,35.8461527 L276.249995,35.9615373 L276.519226,36.4999986 L276.557688,36.6153832 L276.826918,37.1538446 L276.903841,37.4615368 L277.211534,38.4615365 L277.249995,38.6153826 L277.749995,40.1538437 L277.788457,40.3076898 C278.057687,41.2307664 278.326918,42.1923046 278.557687,43.1153813 L278.749995,43.461535 L278.826918,43.8846118 L278.903841,44.1538425 L278.980764,44.6153808 L279.019225,44.8076884 L279.13461,45.1153807 L279.13461,45.4230729 L279.519225,46.8846109 L279.557687,47.1153801 L279.596148,47.2307646 L279.788456,47.7307645 L279.865379,48.0769182 L279.903841,48.8076872 C279.903841,48.8461488 279.903841,48.8461488 279.942302,48.9230718 C279.942302,49.0384564 279.942302,49.1923025 279.903841,49.2692256 L279.903841,49.6538408 L279.63461,50.0769176 L279.365379,50.3846098 L279.211533,50.4230714 L279.096148,50.3846098 L279.057687,49.88461 L279.057687,49.4230717 L279.019225,49.1153795 L278.788456,48.3076874 L278.403841,47.1538416 L278.403841,46.6538417 L278.288456,46.2692265 L278.249995,46.1538419 L278.057687,45.8461497 L278.019226,45.3846113 L277.86538,44.8846115 L277.673072,43.9230733 L277.326918,43.3846119 L277.249995,43.0769197 Z" id="Programmerx" fill="#FFFFFF" fill-rule="nonzero"></path>
    </g>
</svg>